<?xml version="1.0" encoding="UTF-8" standalone="no"?>
<!DOCTYPE svg PUBLIC "-//W3C//DTD SVG 1.1//EN"
 "http://www.w3.org/Graphics/SVG/1.1/DTD/svg11.dtd">
<!-- Generated by graphviz version 14.0.5 (20251129.0259)
 -->
<!-- Title: ResumenNeodadaismo Pages: 1 -->
<svg width="1186pt" height="469pt"
 viewBox="0.00 0.00 1186.00 469.00" xmlns="http://www.w3.org/2000/svg" xmlns:xlink="http://www.w3.org/1999/xlink">
<g id="graph0" class="graph" transform="scale(1 1) rotate(0) translate(14.4 454.75)">
<title>ResumenNeodadaismo</title>
<polygon fill="white" stroke="none" points="-14.4,14.4 -14.4,-454.75 1171.4,-454.75 1171.4,14.4 -14.4,14.4"/>
<g id="clust1" class="cluster">
<title>cluster_0</title>
<path fill="#e3f2fd" stroke="#4a90e2" d="M20,-81.9C20,-81.9 288,-81.9 288,-81.9 294,-81.9 300,-87.9 300,-93.9 300,-93.9 300,-409.34 300,-409.34 300,-415.34 294,-421.34 288,-421.34 288,-421.34 20,-421.34 20,-421.34 14,-421.34 8,-415.34 8,-409.34 8,-409.34 8,-93.9 8,-93.9 8,-87.9 14,-81.9 20,-81.9"/>
<text xml:space="preserve" text-anchor="middle" x="154" y="-404.04" font-family="Helvetica,sans-Serif" font-size="14.00">Diagnóstico: dispositivo de conversión</text>
</g>
<g id="clust2" class="cluster">
<title>cluster_1</title>
<path fill="#fff3e0" stroke="#e67e22" d="M320,-81.9C320,-81.9 594,-81.9 594,-81.9 600,-81.9 606,-87.9 606,-93.9 606,-93.9 606,-409.34 606,-409.34 606,-415.34 600,-421.34 594,-421.34 594,-421.34 320,-421.34 320,-421.34 314,-421.34 308,-415.34 308,-409.34 308,-409.34 308,-93.9 308,-93.9 308,-87.9 314,-81.9 320,-81.9"/>
<text xml:space="preserve" text-anchor="middle" x="457" y="-404.04" font-family="Helvetica,sans-Serif" font-size="14.00">Neodadaísmo: circulación y neutralización</text>
</g>
<g id="clust3" class="cluster">
<title>cluster_2</title>
<path fill="#f3e5f5" stroke="#8e44ad" d="M626,-81.9C626,-81.9 766,-81.9 766,-81.9 772,-81.9 778,-87.9 778,-93.9 778,-93.9 778,-420.35 778,-420.35 778,-426.35 772,-432.35 766,-432.35 766,-432.35 626,-432.35 626,-432.35 620,-432.35 614,-426.35 614,-420.35 614,-420.35 614,-93.9 614,-93.9 614,-87.9 620,-81.9 626,-81.9"/>
<text xml:space="preserve" text-anchor="middle" x="696" y="-415.05" font-family="Helvetica,sans-Serif" font-size="14.00">Marco teórico</text>
</g>
<g id="clust4" class="cluster">
<title>cluster_3</title>
<path fill="#e8f5e9" stroke="#27ae60" d="M798,-8C798,-8 1137,-8 1137,-8 1143,-8 1149,-14 1149,-20 1149,-20 1149,-409.34 1149,-409.34 1149,-415.34 1143,-421.34 1137,-421.34 1137,-421.34 798,-421.34 798,-421.34 792,-421.34 786,-415.34 786,-409.34 786,-409.34 786,-20 786,-20 786,-14 792,-8 798,-8"/>
<text xml:space="preserve" text-anchor="middle" x="967.5" y="-404.04" font-family="Helvetica,sans-Serif" font-size="14.00">Aterrizaje en áreas económico&#45;administrativas y docencia</text>
</g>
<!-- A1 -->
<g id="node1" class="node">
<title>A1</title>
<path fill="white" stroke="black" d="M185.51,-390.34C185.51,-390.34 50.49,-390.34 50.49,-390.34 44.49,-390.34 38.48,-384.34 38.48,-378.34 38.48,-378.34 38.48,-366.34 38.48,-366.34 38.48,-360.34 44.48,-354.34 50.48,-354.34 50.48,-354.34 185.51,-354.34 185.51,-354.34 191.51,-354.34 197.51,-360.34 197.51,-366.34 197.51,-366.34 197.51,-378.34 197.51,-378.34 197.51,-384.34 191.51,-390.34 185.51,-390.34"/>
<text xml:space="preserve" text-anchor="middle" x="118" y="-374.09" font-family="Helvetica,sans-Serif" font-size="10.00">Industria cultural contemporánea</text>
<text xml:space="preserve" text-anchor="middle" x="118" y="-362.84" font-family="Helvetica,sans-Serif" font-size="10.00">(IA generativa)</text>
</g>
<!-- A2 -->
<g id="node2" class="node">
<title>A2</title>
<path fill="white" stroke="black" d="M170.89,-308.57C170.89,-308.57 65.11,-308.57 65.11,-308.57 59.11,-308.57 53.11,-302.57 53.11,-296.57 53.11,-296.57 53.11,-284.57 53.11,-284.57 53.11,-278.57 59.11,-272.57 65.11,-272.57 65.11,-272.57 170.89,-272.57 170.89,-272.57 176.89,-272.57 182.89,-278.57 182.89,-284.57 182.89,-284.57 182.89,-296.57 182.89,-296.57 182.89,-302.57 176.89,-308.57 170.89,-308.57"/>
<text xml:space="preserve" text-anchor="middle" x="118" y="-286.69" font-family="Helvetica,sans-Serif" font-size="10.00">Dispositivo de conversión</text>
</g>
<!-- A1&#45;&gt;A2 -->
<g id="edge1" class="edge">
<title>A1&#45;&gt;A2</title>
<path fill="none" stroke="black" stroke-width="1.3" d="M118,-354.03C118,-344.31 118,-331.92 118,-320.74"/>
<polygon fill="black" stroke="black" stroke-width="1.3" points="121.5,-320.81 118,-310.81 114.5,-320.81 121.5,-320.81"/>
</g>
<!-- A3 -->
<g id="node3" class="node">
<title>A3</title>
<path fill="white" stroke="black" d="M144.14,-229.06C144.14,-229.06 27.86,-229.06 27.86,-229.06 21.86,-229.06 15.86,-223.06 15.86,-217.06 15.86,-217.06 15.86,-184.54 15.86,-184.54 15.86,-178.54 21.86,-172.54 27.86,-172.54 27.86,-172.54 144.14,-172.54 144.14,-172.54 150.14,-172.54 156.14,-178.54 156.14,-184.54 156.14,-184.54 156.14,-217.06 156.14,-217.06 156.14,-223.06 150.14,-229.06 144.14,-229.06"/>
<text xml:space="preserve" text-anchor="middle" x="86" y="-213.8" font-family="Helvetica,sans-Serif" font-size="10.00">Capital simbólico específico</text>
<text xml:space="preserve" text-anchor="middle" x="86" y="-202.55" font-family="Helvetica,sans-Serif" font-size="10.00">(conocimiento experto,</text>
<text xml:space="preserve" text-anchor="middle" x="86" y="-191.3" font-family="Helvetica,sans-Serif" font-size="10.00">singularidad estética,</text>
<text xml:space="preserve" text-anchor="middle" x="86" y="-180.05" font-family="Helvetica,sans-Serif" font-size="10.00">saber&#45;hacer)</text>
</g>
<!-- A2&#45;&gt;A3 -->
<g id="edge2" class="edge">
<title>A2&#45;&gt;A3</title>
<path fill="none" stroke="black" stroke-width="1.3" d="M111.68,-272.23C108.38,-263.18 104.2,-251.72 100.18,-240.69"/>
<polygon fill="black" stroke="black" stroke-width="1.3" points="103.48,-239.51 96.76,-231.32 96.9,-241.91 103.48,-239.51"/>
<text xml:space="preserve" text-anchor="middle" x="118.33" y="-241.26" font-family="Helvetica,sans-Serif" font-size="9.00">captura</text>
</g>
<!-- A5 -->
<g id="node5" class="node">
<title>A5</title>
<path fill="white" stroke="black" d="M280.26,-229.06C280.26,-229.06 185.74,-229.06 185.74,-229.06 179.74,-229.06 173.74,-223.06 173.74,-217.06 173.74,-217.06 173.74,-184.54 173.74,-184.54 173.74,-178.54 179.74,-172.54 185.74,-172.54 185.74,-172.54 280.26,-172.54 280.26,-172.54 286.26,-172.54 292.26,-178.54 292.26,-184.54 292.26,-184.54 292.26,-217.06 292.26,-217.06 292.26,-223.06 286.26,-229.06 280.26,-229.06"/>
<text xml:space="preserve" text-anchor="middle" x="233" y="-213.8" font-family="Helvetica,sans-Serif" font-size="10.00">Sesgo hacia formatos</text>
<text xml:space="preserve" text-anchor="middle" x="233" y="-202.55" font-family="Helvetica,sans-Serif" font-size="10.00">alta circulación</text>
<text xml:space="preserve" text-anchor="middle" x="233" y="-191.3" font-family="Helvetica,sans-Serif" font-size="10.00">(hilos, listas, tutoriales,</text>
<text xml:space="preserve" text-anchor="middle" x="233" y="-180.05" font-family="Helvetica,sans-Serif" font-size="10.00">&quot;top 5&quot;, plantillas)</text>
</g>
<!-- A2&#45;&gt;A5 -->
<g id="edge4" class="edge">
<title>A2&#45;&gt;A5</title>
<path fill="none" stroke="black" stroke-width="1.3" d="M140.72,-272.23C154.07,-262.04 171.43,-248.79 187.48,-236.54"/>
<polygon fill="black" stroke="black" stroke-width="1.3" points="189.36,-239.51 195.18,-230.66 185.11,-233.95 189.36,-239.51"/>
<text xml:space="preserve" text-anchor="middle" x="201.14" y="-241.26" font-family="Helvetica,sans-Serif" font-size="9.00">privilegia</text>
</g>
<!-- A4 -->
<g id="node4" class="node">
<title>A4</title>
<path fill="white" stroke="black" d="M129.14,-135.16C129.14,-135.16 42.86,-135.16 42.86,-135.16 36.86,-135.16 30.86,-129.16 30.86,-123.16 30.86,-123.16 30.86,-101.9 30.86,-101.9 30.86,-95.9 36.86,-89.9 42.86,-89.9 42.86,-89.9 129.14,-89.9 129.14,-89.9 135.14,-89.9 141.14,-95.9 141.14,-101.9 141.14,-101.9 141.14,-123.16 141.14,-123.16 141.14,-129.16 135.14,-135.16 129.14,-135.16"/>
<text xml:space="preserve" text-anchor="middle" x="86" y="-119.91" font-family="Helvetica,sans-Serif" font-size="10.00">Valor de exposición</text>
<text xml:space="preserve" text-anchor="middle" x="86" y="-108.66" font-family="Helvetica,sans-Serif" font-size="10.00">(alcance, seguidores,</text>
<text xml:space="preserve" text-anchor="middle" x="86" y="-97.41" font-family="Helvetica,sans-Serif" font-size="10.00">engagement)</text>
</g>
<!-- A3&#45;&gt;A4 -->
<g id="edge3" class="edge">
<title>A3&#45;&gt;A4</title>
<path fill="none" stroke="black" stroke-width="1.3" d="M86,-172.5C86,-164.48 86,-155.6 86,-147.22"/>
<polygon fill="black" stroke="black" stroke-width="1.3" points="89.5,-147.43 86,-137.43 82.5,-147.43 89.5,-147.43"/>
<text xml:space="preserve" text-anchor="middle" x="108.5" y="-152.99" font-family="Helvetica,sans-Serif" font-size="9.00">conversión</text>
</g>
<!-- A6 -->
<g id="node6" class="node">
<title>A6</title>
<path fill="white" stroke="black" d="M263.76,-135.16C263.76,-135.16 202.24,-135.16 202.24,-135.16 196.24,-135.16 190.24,-129.16 190.24,-123.16 190.24,-123.16 190.24,-101.9 190.24,-101.9 190.24,-95.9 196.24,-89.9 202.24,-89.9 202.24,-89.9 263.76,-89.9 263.76,-89.9 269.76,-89.9 275.76,-95.9 275.76,-101.9 275.76,-101.9 275.76,-123.16 275.76,-123.16 275.76,-129.16 269.76,-135.16 263.76,-135.16"/>
<text xml:space="preserve" text-anchor="middle" x="233" y="-119.91" font-family="Helvetica,sans-Serif" font-size="10.00">Efectos:</text>
<text xml:space="preserve" text-anchor="middle" x="233" y="-108.66" font-family="Helvetica,sans-Serif" font-size="10.00">banalización +</text>
<text xml:space="preserve" text-anchor="middle" x="233" y="-97.41" font-family="Helvetica,sans-Serif" font-size="10.00">estandarización</text>
</g>
<!-- A5&#45;&gt;A6 -->
<g id="edge5" class="edge">
<title>A5&#45;&gt;A6</title>
<path fill="none" stroke="black" stroke-width="1.3" d="M233,-172.5C233,-164.48 233,-155.6 233,-147.22"/>
<polygon fill="black" stroke="black" stroke-width="1.3" points="236.5,-147.43 233,-137.43 229.5,-147.43 236.5,-147.43"/>
<text xml:space="preserve" text-anchor="middle" x="250.62" y="-152.99" font-family="Helvetica,sans-Serif" font-size="9.00">favorece</text>
</g>
<!-- B1 -->
<g id="node7" class="node">
<title>B1</title>
<path fill="white" stroke="black" d="M435.01,-390.34C435.01,-390.34 338.99,-390.34 338.99,-390.34 332.99,-390.34 326.99,-384.34 326.99,-378.34 326.99,-378.34 326.99,-366.34 326.99,-366.34 326.99,-360.34 332.99,-354.34 338.99,-354.34 338.99,-354.34 435.01,-354.34 435.01,-354.34 441.01,-354.34 447.01,-360.34 447.01,-366.34 447.01,-366.34 447.01,-378.34 447.01,-378.34 447.01,-384.34 441.01,-390.34 435.01,-390.34"/>
<text xml:space="preserve" text-anchor="middle" x="387" y="-374.09" font-family="Helvetica,sans-Serif" font-size="10.00">Gesto vanguardista</text>
<text xml:space="preserve" text-anchor="middle" x="387" y="-362.84" font-family="Helvetica,sans-Serif" font-size="10.00">(arte como interrupción)</text>
</g>
<!-- B2 -->
<g id="node8" class="node">
<title>B2</title>
<path fill="white" stroke="black" d="M433.51,-308.57C433.51,-308.57 340.49,-308.57 340.49,-308.57 334.49,-308.57 328.49,-302.57 328.49,-296.57 328.49,-296.57 328.49,-284.57 328.49,-284.57 328.49,-278.57 334.49,-272.57 340.49,-272.57 340.49,-272.57 433.51,-272.57 433.51,-272.57 439.51,-272.57 445.51,-278.57 445.51,-284.57 445.51,-284.57 445.51,-296.57 445.51,-296.57 445.51,-302.57 439.51,-308.57 433.51,-308.57"/>
<text xml:space="preserve" text-anchor="middle" x="387" y="-292.32" font-family="Helvetica,sans-Serif" font-size="10.00">Reconfiguración:</text>
<text xml:space="preserve" text-anchor="middle" x="387" y="-281.07" font-family="Helvetica,sans-Serif" font-size="10.00">&quot;contenido&quot; optimizado</text>
</g>
<!-- B1&#45;&gt;B2 -->
<g id="edge6" class="edge">
<title>B1&#45;&gt;B2</title>
<path fill="none" stroke="black" stroke-width="1.3" d="M387,-354.03C387,-344.31 387,-331.92 387,-320.74"/>
<polygon fill="black" stroke="black" stroke-width="1.3" points="390.5,-320.81 387,-310.81 383.5,-320.81 390.5,-320.81"/>
</g>
<!-- B3 -->
<g id="node9" class="node">
<title>B3</title>
<path fill="white" stroke="black" d="M445.51,-218.8C445.51,-218.8 328.49,-218.8 328.49,-218.8 322.49,-218.8 316.49,-212.8 316.49,-206.8 316.49,-206.8 316.49,-194.8 316.49,-194.8 316.49,-188.8 322.49,-182.8 328.49,-182.8 328.49,-182.8 445.51,-182.8 445.51,-182.8 451.51,-182.8 457.51,-188.8 457.51,-194.8 457.51,-194.8 457.51,-206.8 457.51,-206.8 457.51,-212.8 451.51,-218.8 445.51,-218.8"/>
<text xml:space="preserve" text-anchor="middle" x="387" y="-202.55" font-family="Helvetica,sans-Serif" font-size="10.00">Neodadaísmo mainstream</text>
<text xml:space="preserve" text-anchor="middle" x="387" y="-191.3" font-family="Helvetica,sans-Serif" font-size="10.00">(e.g. brainrot asistido por IA)</text>
</g>
<!-- B2&#45;&gt;B3 -->
<g id="edge7" class="edge">
<title>B2&#45;&gt;B3</title>
<path fill="none" stroke="black" stroke-width="1.3" d="M387,-272.23C387,-260.45 387,-244.58 387,-230.89"/>
<polygon fill="black" stroke="black" stroke-width="1.3" points="390.5,-231.07 387,-221.07 383.5,-231.07 390.5,-231.07"/>
</g>
<!-- B5 -->
<g id="node11" class="node">
<title>B5</title>
<path fill="white" stroke="black" d="M476.76,-135.16C476.76,-135.16 391.24,-135.16 391.24,-135.16 385.24,-135.16 379.24,-129.16 379.24,-123.16 379.24,-123.16 379.24,-101.9 379.24,-101.9 379.24,-95.9 385.24,-89.9 391.24,-89.9 391.24,-89.9 476.76,-89.9 476.76,-89.9 482.76,-89.9 488.76,-95.9 488.76,-101.9 488.76,-101.9 488.76,-123.16 488.76,-123.16 488.76,-129.16 482.76,-135.16 476.76,-135.16"/>
<text xml:space="preserve" text-anchor="middle" x="434" y="-119.91" font-family="Helvetica,sans-Serif" font-size="10.00">Neutralización:</text>
<text xml:space="preserve" text-anchor="middle" x="434" y="-108.66" font-family="Helvetica,sans-Serif" font-size="10.00">integración al circuito</text>
<text xml:space="preserve" text-anchor="middle" x="434" y="-97.41" font-family="Helvetica,sans-Serif" font-size="10.00">de visibilidad</text>
</g>
<!-- B3&#45;&gt;B5 -->
<g id="edge9" class="edge">
<title>B3&#45;&gt;B5</title>
<path fill="none" stroke="black" stroke-width="1.3" d="M396.51,-182.34C402.2,-171.91 409.6,-158.32 416.32,-145.98"/>
<polygon fill="black" stroke="black" stroke-width="1.3" points="419.34,-147.75 421.05,-137.3 413.19,-144.4 419.34,-147.75"/>
<text xml:space="preserve" text-anchor="middle" x="428.41" y="-152.99" font-family="Helvetica,sans-Serif" font-size="9.00">tiende a</text>
</g>
<!-- B4 -->
<g id="node10" class="node">
<title>B4</title>
<path fill="white" stroke="black" d="M586.14,-223.43C586.14,-223.43 487.86,-223.43 487.86,-223.43 481.86,-223.43 475.86,-217.43 475.86,-211.43 475.86,-211.43 475.86,-190.16 475.86,-190.16 475.86,-184.16 481.86,-178.16 487.86,-178.16 487.86,-178.16 586.14,-178.16 586.14,-178.16 592.14,-178.16 598.14,-184.16 598.14,-190.16 598.14,-190.16 598.14,-211.43 598.14,-211.43 598.14,-217.43 592.14,-223.43 586.14,-223.43"/>
<text xml:space="preserve" text-anchor="middle" x="537" y="-208.17" font-family="Helvetica,sans-Serif" font-size="10.00">Contraste:</text>
<text xml:space="preserve" text-anchor="middle" x="537" y="-196.92" font-family="Helvetica,sans-Serif" font-size="10.00">Dadá histórico =</text>
<text xml:space="preserve" text-anchor="middle" x="537" y="-185.67" font-family="Helvetica,sans-Serif" font-size="10.00">desestabilización crítica</text>
</g>
<!-- B4&#45;&gt;B5 -->
<g id="edge8" class="edge">
<title>B4&#45;&gt;B5</title>
<path fill="none" stroke="black" stroke-width="1.3" d="M510.74,-177.81C498.15,-167.26 482.89,-154.48 469.3,-143.09"/>
<polygon fill="black" stroke="black" stroke-width="1.3" points="471.63,-140.48 461.72,-136.75 467.14,-145.85 471.63,-140.48"/>
</g>
<!-- C1 -->
<g id="node12" class="node">
<title>C1</title>
<path fill="white" stroke="black" d="M742.14,-401.35C742.14,-401.35 649.86,-401.35 649.86,-401.35 643.86,-401.35 637.86,-395.35 637.86,-389.35 637.86,-389.35 637.86,-355.33 637.86,-355.33 637.86,-349.33 643.86,-343.33 649.86,-343.33 649.86,-343.33 742.14,-343.33 742.14,-343.33 748.14,-343.33 754.14,-349.33 754.14,-355.33 754.14,-355.33 754.14,-389.35 754.14,-389.35 754.14,-395.35 748.14,-401.35 742.14,-401.35"/>
<text xml:space="preserve" text-anchor="middle" x="696" y="-386.09" font-family="Helvetica,sans-Serif" font-size="10.00">Walter Benjamin:</text>
<text xml:space="preserve" text-anchor="middle" x="696" y="-374.84" font-family="Helvetica,sans-Serif" font-size="10.00">valor de exposición</text>
<text xml:space="preserve" text-anchor="middle" x="696" y="-363.59" font-family="Helvetica,sans-Serif" font-size="10.00">↔ experiencia estética</text>
<text xml:space="preserve" text-anchor="middle" x="696" y="-351.59" font-family="Helvetica,sans-Serif" font-size="10.00">↔ potencia política</text>
</g>
<!-- C2 -->
<g id="node13" class="node">
<title>C2</title>
<path fill="white" stroke="black" d="M758.26,-320.33C758.26,-320.33 633.74,-320.33 633.74,-320.33 627.74,-320.33 621.74,-314.33 621.74,-308.33 621.74,-308.33 621.74,-272.81 621.74,-272.81 621.74,-266.81 627.74,-260.81 633.74,-260.81 633.74,-260.81 758.26,-260.81 758.26,-260.81 764.26,-260.81 770.26,-266.81 770.26,-272.81 770.26,-272.81 770.26,-308.33 770.26,-308.33 770.26,-314.33 764.26,-320.33 758.26,-320.33"/>
<text xml:space="preserve" text-anchor="middle" x="696" y="-305.07" font-family="Helvetica,sans-Serif" font-size="10.00">Goffman + Luhmann:</text>
<text xml:space="preserve" text-anchor="middle" x="696" y="-293.82" font-family="Helvetica,sans-Serif" font-size="10.00">programas/marcos mediáticos</text>
<text xml:space="preserve" text-anchor="middle" x="696" y="-282.57" font-family="Helvetica,sans-Serif" font-size="10.00">→ estabilizan expectativas</text>
<text xml:space="preserve" text-anchor="middle" x="696" y="-269.82" font-family="Helvetica,sans-Serif" font-size="10.00">→ orientan sentido</text>
</g>
<!-- C1&#45;&gt;C2 -->
<!-- C3 -->
<g id="node14" class="node">
<title>C3</title>
<path fill="white" stroke="black" d="M739.89,-229.06C739.89,-229.06 652.11,-229.06 652.11,-229.06 646.11,-229.06 640.11,-223.06 640.11,-217.06 640.11,-217.06 640.11,-184.54 640.11,-184.54 640.11,-178.54 646.11,-172.54 652.11,-172.54 652.11,-172.54 739.89,-172.54 739.89,-172.54 745.89,-172.54 751.89,-178.54 751.89,-184.54 751.89,-184.54 751.89,-217.06 751.89,-217.06 751.89,-223.06 745.89,-229.06 739.89,-229.06"/>
<text xml:space="preserve" text-anchor="middle" x="696" y="-213.8" font-family="Helvetica,sans-Serif" font-size="10.00">Hans G. Moeller:</text>
<text xml:space="preserve" text-anchor="middle" x="696" y="-202.55" font-family="Helvetica,sans-Serif" font-size="10.00">perfilicidad</text>
<text xml:space="preserve" text-anchor="middle" x="696" y="-191.3" font-family="Helvetica,sans-Serif" font-size="10.00">(curaduría estratégica</text>
<text xml:space="preserve" text-anchor="middle" x="696" y="-180.05" font-family="Helvetica,sans-Serif" font-size="10.00">de perfiles)</text>
</g>
<!-- C2&#45;&gt;C3 -->
<!-- C4 -->
<g id="node15" class="node">
<title>C4</title>
<path fill="white" stroke="black" d="M744.39,-135.16C744.39,-135.16 647.61,-135.16 647.61,-135.16 641.61,-135.16 635.61,-129.16 635.61,-123.16 635.61,-123.16 635.61,-101.9 635.61,-101.9 635.61,-95.9 641.61,-89.9 647.61,-89.9 647.61,-89.9 744.39,-89.9 744.39,-89.9 750.39,-89.9 756.39,-95.9 756.39,-101.9 756.39,-101.9 756.39,-123.16 756.39,-123.16 756.39,-129.16 750.39,-135.16 744.39,-135.16"/>
<text xml:space="preserve" text-anchor="middle" x="696" y="-119.91" font-family="Helvetica,sans-Serif" font-size="10.00">Doctorow:</text>
<text xml:space="preserve" text-anchor="middle" x="696" y="-108.66" font-family="Helvetica,sans-Serif" font-size="10.00">enshittification</text>
<text xml:space="preserve" text-anchor="middle" x="696" y="-97.41" font-family="Helvetica,sans-Serif" font-size="10.00">(degradación sistémica)</text>
</g>
<!-- C3&#45;&gt;C4 -->
<!-- D1 -->
<g id="node16" class="node">
<title>D1</title>
<path fill="white" stroke="black" d="M1099.39,-390.34C1099.39,-390.34 990.61,-390.34 990.61,-390.34 984.61,-390.34 978.61,-384.34 978.61,-378.34 978.61,-378.34 978.61,-366.34 978.61,-366.34 978.61,-360.34 984.61,-354.34 990.61,-354.34 990.61,-354.34 1099.39,-354.34 1099.39,-354.34 1105.39,-354.34 1111.39,-360.34 1111.39,-366.34 1111.39,-366.34 1111.39,-378.34 1111.39,-378.34 1111.39,-384.34 1105.39,-390.34 1099.39,-390.34"/>
<text xml:space="preserve" text-anchor="middle" x="1045" y="-374.09" font-family="Helvetica,sans-Serif" font-size="10.00">Gestión del</text>
<text xml:space="preserve" text-anchor="middle" x="1045" y="-362.84" font-family="Helvetica,sans-Serif" font-size="10.00">&quot;dispositivo de la persona&quot;</text>
</g>
<!-- D2 -->
<g id="node17" class="node">
<title>D2</title>
<path fill="white" stroke="black" d="M1099.77,-313.2C1099.77,-313.2 990.24,-313.2 990.24,-313.2 984.24,-313.2 978.24,-307.2 978.24,-301.2 978.24,-301.2 978.24,-279.94 978.24,-279.94 978.24,-273.94 984.24,-267.94 990.24,-267.94 990.24,-267.94 1099.77,-267.94 1099.77,-267.94 1105.77,-267.94 1111.77,-273.94 1111.77,-279.94 1111.77,-279.94 1111.77,-301.2 1111.77,-301.2 1111.77,-307.2 1105.77,-313.2 1099.77,-313.2"/>
<text xml:space="preserve" text-anchor="middle" x="1045" y="-297.94" font-family="Helvetica,sans-Serif" font-size="10.00">Acoplamiento a regímenes</text>
<text xml:space="preserve" text-anchor="middle" x="1045" y="-286.69" font-family="Helvetica,sans-Serif" font-size="10.00">estéticos de exposición,</text>
<text xml:space="preserve" text-anchor="middle" x="1045" y="-275.44" font-family="Helvetica,sans-Serif" font-size="10.00">evaluación y visibilidad</text>
</g>
<!-- D1&#45;&gt;D2 -->
<g id="edge13" class="edge">
<title>D1&#45;&gt;D2</title>
<path fill="none" stroke="black" stroke-width="1.3" d="M1045,-354.03C1045,-345.56 1045,-335.07 1045,-325.11"/>
<polygon fill="black" stroke="black" stroke-width="1.3" points="1048.5,-325.38 1045,-315.38 1041.5,-325.38 1048.5,-325.38"/>
</g>
<!-- D3 -->
<g id="node18" class="node">
<title>D3</title>
<path fill="white" stroke="black" d="M1093.02,-218.8C1093.02,-218.8 996.99,-218.8 996.99,-218.8 990.99,-218.8 984.99,-212.8 984.99,-206.8 984.99,-206.8 984.99,-194.8 984.99,-194.8 984.99,-188.8 990.99,-182.8 996.99,-182.8 996.99,-182.8 1093.02,-182.8 1093.02,-182.8 1099.02,-182.8 1105.02,-188.8 1105.02,-194.8 1105.02,-194.8 1105.02,-206.8 1105.02,-206.8 1105.02,-212.8 1099.02,-218.8 1093.02,-218.8"/>
<text xml:space="preserve" text-anchor="middle" x="1045" y="-196.92" font-family="Helvetica,sans-Serif" font-size="10.00">Implicaciones docentes</text>
</g>
<!-- D2&#45;&gt;D3 -->
<g id="edge14" class="edge">
<title>D2&#45;&gt;D3</title>
<path fill="none" stroke="black" stroke-width="1.3" d="M1045,-267.87C1045,-256.72 1045,-242.98 1045,-230.91"/>
<polygon fill="black" stroke="black" stroke-width="1.3" points="1048.5,-231.1 1045,-221.1 1041.5,-231.1 1048.5,-231.1"/>
</g>
<!-- D4 -->
<g id="node19" class="node">
<title>D4</title>
<path fill="white" stroke="black" d="M951.89,-130.53C951.89,-130.53 834.11,-130.53 834.11,-130.53 828.11,-130.53 822.11,-124.53 822.11,-118.53 822.11,-118.53 822.11,-106.53 822.11,-106.53 822.11,-100.53 828.11,-94.53 834.11,-94.53 834.11,-94.53 951.89,-94.53 951.89,-94.53 957.89,-94.53 963.89,-100.53 963.89,-106.53 963.89,-106.53 963.89,-118.53 963.89,-118.53 963.89,-124.53 957.89,-130.53 951.89,-130.53"/>
<text xml:space="preserve" text-anchor="middle" x="893" y="-114.28" font-family="Helvetica,sans-Serif" font-size="10.00">Alfabetización</text>
<text xml:space="preserve" text-anchor="middle" x="893" y="-103.03" font-family="Helvetica,sans-Serif" font-size="10.00">(técnica–mediática–estética)</text>
</g>
<!-- D3&#45;&gt;D4 -->
<g id="edge15" class="edge">
<title>D3&#45;&gt;D4</title>
<path fill="none" stroke="black" stroke-width="1.3" d="M1045,-155.66C1036.85,-141.51 988.76,-145.09 973,-140.79 966.21,-138.94 959.15,-136.82 952.17,-134.61"/>
<polygon fill="black" stroke="black" stroke-width="1.3" points="953.39,-131.33 942.8,-131.55 951.22,-137.98 953.39,-131.33"/>
<path fill="none" stroke="black" stroke-width="1.3" d="M1048.8,-182.38C1049.63,-174.36 1049.23,-165.02 1045,-157.66"/>
</g>
<!-- D5 -->
<g id="node20" class="node">
<title>D5</title>
<path fill="white" stroke="black" d="M1096.02,-140.79C1096.02,-140.79 993.99,-140.79 993.99,-140.79 987.99,-140.79 981.99,-134.79 981.99,-128.79 981.99,-128.79 981.99,-96.27 981.99,-96.27 981.99,-90.27 987.99,-84.27 993.99,-84.27 993.99,-84.27 1096.02,-84.27 1096.02,-84.27 1102.02,-84.27 1108.02,-90.27 1108.02,-96.27 1108.02,-96.27 1108.02,-128.79 1108.02,-128.79 1108.02,-134.79 1102.02,-140.79 1096.02,-140.79"/>
<text xml:space="preserve" text-anchor="middle" x="1045" y="-125.53" font-family="Helvetica,sans-Serif" font-size="10.00">Diseño de prácticas</text>
<text xml:space="preserve" text-anchor="middle" x="1045" y="-114.28" font-family="Helvetica,sans-Serif" font-size="10.00">que no reduzcan</text>
<text xml:space="preserve" text-anchor="middle" x="1045" y="-103.03" font-family="Helvetica,sans-Serif" font-size="10.00">creatividad/pensamiento</text>
<text xml:space="preserve" text-anchor="middle" x="1045" y="-91.78" font-family="Helvetica,sans-Serif" font-size="10.00">= &quot;contenido&quot; optimizado</text>
</g>
<!-- D3&#45;&gt;D5 -->
<g id="edge16" class="edge">
<title>D3&#45;&gt;D5</title>
<path fill="none" stroke="black" stroke-width="1.3" d="M1045,-155.66C1044.36,-154.56 1043.81,-153.4 1043.34,-152.21"/>
<polygon fill="black" stroke="black" stroke-width="1.3" points="1046.85,-151.9 1041.36,-142.83 1040,-153.34 1046.85,-151.9"/>
</g>
<!-- D6 -->
<g id="node21" class="node">
<title>D6</title>
<path fill="white" stroke="black" d="M1094.89,-61.27C1094.89,-61.27 995.11,-61.27 995.11,-61.27 989.11,-61.27 983.11,-55.27 983.11,-49.27 983.11,-49.27 983.11,-28 983.11,-28 983.11,-22 989.11,-16 995.11,-16 995.11,-16 1094.89,-16 1094.89,-16 1100.89,-16 1106.89,-22 1106.89,-28 1106.89,-28 1106.89,-49.27 1106.89,-49.27 1106.89,-55.27 1100.89,-61.27 1094.89,-61.27"/>
<text xml:space="preserve" text-anchor="middle" x="1045" y="-46.01" font-family="Helvetica,sans-Serif" font-size="10.00">Estrategias para no</text>
<text xml:space="preserve" text-anchor="middle" x="1045" y="-34.76" font-family="Helvetica,sans-Serif" font-size="10.00">reproducir (o no reforzar)</text>
<text xml:space="preserve" text-anchor="middle" x="1045" y="-23.51" font-family="Helvetica,sans-Serif" font-size="10.00">enshittification</text>
</g>
<!-- D5&#45;&gt;D6 -->
<g id="edge17" class="edge">
<title>D5&#45;&gt;D6</title>
<path fill="none" stroke="black" stroke-width="1.3" d="M1045,-83.94C1045,-80.45 1045,-76.85 1045,-73.28"/>
<polygon fill="black" stroke="black" stroke-width="1.3" points="1048.5,-73.43 1045,-63.43 1041.5,-73.43 1048.5,-73.43"/>
</g>
</g>
</svg>
