<?xml version="1.0" encoding="UTF-8" standalone="no"?>
<!DOCTYPE svg PUBLIC "-//W3C//DTD SVG 1.1//EN"
 "http://www.w3.org/Graphics/SVG/1.1/DTD/svg11.dtd">
<!-- Generated by graphviz version 14.0.5 (20251129.0259)
 -->
<!-- Title: EsquemaInstagentrificacion Pages: 1 -->
<svg width="843pt" height="122pt"
 viewBox="0.00 0.00 843.00 122.00" xmlns="http://www.w3.org/2000/svg" xmlns:xlink="http://www.w3.org/1999/xlink">
<g id="graph0" class="graph" transform="scale(1 1) rotate(0) translate(8.64 113.53)">
<title>EsquemaInstagentrificacion</title>
<polygon fill="white" stroke="none" points="-8.64,8.64 -8.64,-113.53 834.6,-113.53 834.6,8.64 -8.64,8.64"/>
<!-- A1 -->
<g id="node1" class="node">
<title>A1</title>
<path fill="white" stroke="black" d="M126.84,-103.94C126.84,-103.94 12,-103.94 12,-103.94 6,-103.94 0,-97.94 0,-91.94 0,-91.94 0,-79.94 0,-79.94 0,-73.94 6,-67.94 12,-67.94 12,-67.94 126.84,-67.94 126.84,-67.94 132.84,-67.94 138.84,-73.94 138.84,-79.94 138.84,-79.94 138.84,-91.94 138.84,-91.94 138.84,-97.94 132.84,-103.94 126.84,-103.94"/>
<text xml:space="preserve" text-anchor="middle" x="69.42" y="-87.14" font-family="Helvetica,sans-Serif" font-size="9.00">CE local</text>
<text xml:space="preserve" text-anchor="middle" x="69.42" y="-77.39" font-family="Helvetica,sans-Serif" font-size="9.00">(memoria, oficios, comunidad)</text>
</g>
<!-- A2 -->
<g id="node2" class="node">
<title>A2</title>
<path fill="white" stroke="black" d="M294.46,-104.89C294.46,-104.89 198.37,-104.89 198.37,-104.89 192.37,-104.89 186.37,-98.89 186.37,-92.89 186.37,-92.89 186.37,-79 186.37,-79 186.37,-73 192.37,-67 198.37,-67 198.37,-67 294.46,-67 294.46,-67 300.46,-67 306.46,-73 306.46,-79 306.46,-79 306.46,-92.89 306.46,-92.89 306.46,-98.89 300.46,-104.89 294.46,-104.89"/>
<text xml:space="preserve" text-anchor="middle" x="246.42" y="-92.02" font-family="Helvetica,sans-Serif" font-size="9.00">Legibilidad de plataforma</text>
<text xml:space="preserve" text-anchor="middle" x="246.42" y="-82.27" font-family="Helvetica,sans-Serif" font-size="9.00">(fotogenia, relato breve,</text>
<text xml:space="preserve" text-anchor="middle" x="246.42" y="-72.52" font-family="Helvetica,sans-Serif" font-size="9.00">repetibilidad)</text>
</g>
<!-- A1&#45;&gt;A2 -->
<g id="edge1" class="edge">
<title>A1&#45;&gt;A2</title>
<path fill="none" stroke="black" stroke-width="1.2" d="M139.12,-85.94C150.73,-85.94 162.79,-85.94 174.46,-85.94"/>
<polygon fill="black" stroke="black" stroke-width="1.2" points="174.14,-89.45 184.14,-85.95 174.14,-82.45 174.14,-89.45"/>
<text xml:space="preserve" text-anchor="middle" x="162.61" y="-90.34" font-family="Helvetica,sans-Serif" font-size="8.00">selección</text>
</g>
<!-- A3 -->
<g id="node3" class="node">
<title>A3</title>
<path fill="white" stroke="black" d="M443.84,-104.89C443.84,-104.89 371,-104.89 371,-104.89 365,-104.89 359,-98.89 359,-92.89 359,-92.89 359,-79 359,-79 359,-73 365,-67 371,-67 371,-67 443.84,-67 443.84,-67 449.84,-67 455.84,-73 455.84,-79 455.84,-79 455.84,-92.89 455.84,-92.89 455.84,-98.89 449.84,-104.89 443.84,-104.89"/>
<text xml:space="preserve" text-anchor="middle" x="407.42" y="-92.02" font-family="Helvetica,sans-Serif" font-size="9.00">VE circulable</text>
<text xml:space="preserve" text-anchor="middle" x="407.42" y="-82.27" font-family="Helvetica,sans-Serif" font-size="9.00">(imagen de destino,</text>
<text xml:space="preserve" text-anchor="middle" x="407.42" y="-72.52" font-family="Helvetica,sans-Serif" font-size="9.00">atención)</text>
</g>
<!-- A2&#45;&gt;A3 -->
<g id="edge2" class="edge">
<title>A2&#45;&gt;A3</title>
<path fill="none" stroke="black" stroke-width="1.2" d="M306.83,-85.94C319.94,-85.94 333.82,-85.94 346.94,-85.94"/>
<polygon fill="black" stroke="black" stroke-width="1.2" points="346.92,-89.45 356.92,-85.95 346.92,-82.45 346.92,-89.45"/>
<text xml:space="preserve" text-anchor="middle" x="332.73" y="-90.34" font-family="Helvetica,sans-Serif" font-size="8.00">traducción</text>
</g>
<!-- A4 -->
<g id="node4" class="node">
<title>A4</title>
<path fill="white" stroke="black" d="M634.34,-104.89C634.34,-104.89 546.5,-104.89 546.5,-104.89 540.5,-104.89 534.5,-98.89 534.5,-92.89 534.5,-92.89 534.5,-79 534.5,-79 534.5,-73 540.5,-67 546.5,-67 546.5,-67 634.34,-67 634.34,-67 640.34,-67 646.34,-73 646.34,-79 646.34,-79 646.34,-92.89 646.34,-92.89 646.34,-98.89 640.34,-104.89 634.34,-104.89"/>
<text xml:space="preserve" text-anchor="middle" x="590.42" y="-92.02" font-family="Helvetica,sans-Serif" font-size="9.00">Intervención material</text>
<text xml:space="preserve" text-anchor="middle" x="590.42" y="-82.27" font-family="Helvetica,sans-Serif" font-size="9.00">(decisiones urbanas,</text>
<text xml:space="preserve" text-anchor="middle" x="590.42" y="-72.52" font-family="Helvetica,sans-Serif" font-size="9.00">jurídicas y económicas)</text>
</g>
<!-- A3&#45;&gt;A4 -->
<g id="edge3" class="edge">
<title>A3&#45;&gt;A4</title>
<path fill="none" stroke="black" stroke-width="1.2" d="M455.98,-85.94C476.35,-85.94 500.4,-85.94 522.49,-85.94"/>
<polygon fill="black" stroke="black" stroke-width="1.2" points="522.35,-89.45 532.35,-85.95 522.35,-82.45 522.35,-89.45"/>
<text xml:space="preserve" text-anchor="middle" x="495.17" y="-90.34" font-family="Helvetica,sans-Serif" font-size="8.00">se implementa en</text>
</g>
<!-- B1 -->
<g id="node6" class="node">
<title>B1</title>
<path fill="white" stroke="black" d="M460.34,-36C460.34,-36 354.5,-36 354.5,-36 348.5,-36 342.5,-30 342.5,-24 342.5,-24 342.5,-12 342.5,-12 342.5,-6 348.5,0 354.5,0 354.5,0 460.34,0 460.34,0 466.34,0 472.34,-6 472.34,-12 472.34,-12 472.34,-24 472.34,-24 472.34,-30 466.34,-36 460.34,-36"/>
<text xml:space="preserve" text-anchor="middle" x="407.42" y="-19.2" font-family="Helvetica,sans-Serif" font-size="9.00">Tasa más desfavorable:</text>
<text xml:space="preserve" text-anchor="middle" x="407.42" y="-9.45" font-family="Helvetica,sans-Serif" font-size="9.00">el CE local no captura el VE</text>
</g>
<!-- A3&#45;&gt;B1 -->
<g id="edge5" class="edge">
<title>A3&#45;&gt;B1</title>
<path fill="none" stroke="black" stroke-width="1.2" stroke-dasharray="5,2" d="M407.42,-66.58C407.42,-57.12 407.42,-45.67 407.42,-36.36"/>
</g>
<!-- A5 -->
<g id="node5" class="node">
<title>A5</title>
<path fill="white" stroke="black" d="M813.96,-104.89C813.96,-104.89 702.88,-104.89 702.88,-104.89 696.88,-104.89 690.88,-98.89 690.88,-92.89 690.88,-92.89 690.88,-79 690.88,-79 690.88,-73 696.88,-67 702.88,-67 702.88,-67 813.96,-67 813.96,-67 819.96,-67 825.96,-73 825.96,-79 825.96,-79 825.96,-92.89 825.96,-92.89 825.96,-98.89 819.96,-104.89 813.96,-104.89"/>
<text xml:space="preserve" text-anchor="middle" x="758.42" y="-92.02" font-family="Helvetica,sans-Serif" font-size="9.00">Resultado</text>
<text xml:space="preserve" text-anchor="middle" x="758.42" y="-82.27" font-family="Helvetica,sans-Serif" font-size="9.00">(desplazamiento y beneficios</text>
<text xml:space="preserve" text-anchor="middle" x="758.42" y="-72.52" font-family="Helvetica,sans-Serif" font-size="9.00">en intermediarios)</text>
</g>
<!-- A4&#45;&gt;A5 -->
<g id="edge4" class="edge">
<title>A4&#45;&gt;A5</title>
<path fill="none" stroke="black" stroke-width="1.2" d="M646.83,-85.94C657.12,-85.94 668.03,-85.94 678.85,-85.94"/>
<polygon fill="black" stroke="black" stroke-width="1.2" points="678.69,-89.45 688.69,-85.95 678.69,-82.45 678.69,-89.45"/>
<text xml:space="preserve" text-anchor="middle" x="668.61" y="-90.34" font-family="Helvetica,sans-Serif" font-size="8.00">produce</text>
</g>
<!-- B2 -->
<g id="node7" class="node">
<title>B2</title>
<path fill="white" stroke="black" d="M626.46,-36C626.46,-36 554.38,-36 554.38,-36 548.38,-36 542.38,-30 542.38,-24 542.38,-24 542.38,-12 542.38,-12 542.38,-6 548.38,0 554.38,0 554.38,0 626.46,0 626.46,0 632.46,0 638.46,-6 638.46,-12 638.46,-12 638.46,-24 638.46,-24 638.46,-30 632.46,-36 626.46,-36"/>
<text xml:space="preserve" text-anchor="middle" x="590.42" y="-19.2" font-family="Helvetica,sans-Serif" font-size="9.00">Marcos externos</text>
<text xml:space="preserve" text-anchor="middle" x="590.42" y="-9.45" font-family="Helvetica,sans-Serif" font-size="9.00">ordenan el territorio</text>
</g>
<!-- A4&#45;&gt;B2 -->
<g id="edge6" class="edge">
<title>A4&#45;&gt;B2</title>
<path fill="none" stroke="black" stroke-width="1.2" stroke-dasharray="5,2" d="M590.42,-66.58C590.42,-57.12 590.42,-45.67 590.42,-36.36"/>
</g>
<!-- B3 -->
<g id="node8" class="node">
<title>B3</title>
<path fill="white" stroke="black" d="M792.21,-36C792.21,-36 724.62,-36 724.62,-36 718.62,-36 712.62,-30 712.62,-24 712.62,-24 712.62,-12 712.62,-12 712.62,-6 718.62,0 724.62,0 724.62,0 792.21,0 792.21,0 798.21,0 804.21,-6 804.21,-12 804.21,-12 804.21,-24 804.21,-24 804.21,-30 798.21,-36 792.21,-36"/>
<text xml:space="preserve" text-anchor="middle" x="758.42" y="-19.2" font-family="Helvetica,sans-Serif" font-size="9.00">Forma circulable &gt;</text>
<text xml:space="preserve" text-anchor="middle" x="758.42" y="-9.45" font-family="Helvetica,sans-Serif" font-size="9.00">negatividad crítica</text>
</g>
<!-- A5&#45;&gt;B3 -->
<g id="edge7" class="edge">
<title>A5&#45;&gt;B3</title>
<path fill="none" stroke="black" stroke-width="1.2" stroke-dasharray="5,2" d="M758.42,-66.58C758.42,-57.12 758.42,-45.67 758.42,-36.36"/>
</g>
<!-- B1&#45;&gt;B2 -->
<!-- B2&#45;&gt;B3 -->
</g>
</svg>
