<?xml version="1.0" encoding="UTF-8" standalone="no"?>
<!DOCTYPE svg PUBLIC "-//W3C//DTD SVG 1.1//EN"
 "http://www.w3.org/Graphics/SVG/1.1/DTD/svg11.dtd">
<!-- Generated by graphviz version 14.0.5 (20251129.0259)
 -->
<!-- Title: EsquemaConclusiones Pages: 1 -->
<svg width="805pt" height="137pt"
 viewBox="0.00 0.00 805.00 137.00" xmlns="http://www.w3.org/2000/svg" xmlns:xlink="http://www.w3.org/1999/xlink">
<g id="graph0" class="graph" transform="scale(1 1) rotate(0) translate(8.64 128.17)">
<title>EsquemaConclusiones</title>
<polygon fill="white" stroke="none" points="-8.64,8.64 -8.64,-128.17 796.1,-128.17 796.1,8.64 -8.64,8.64"/>
<!-- A1 -->
<g id="node1" class="node">
<title>A1</title>
<path fill="white" stroke="black" d="M84.09,-118.78C84.09,-118.78 12,-118.78 12,-118.78 6,-118.78 0,-112.78 0,-106.78 0,-106.78 0,-91.39 0,-91.39 0,-85.39 6,-79.39 12,-79.39 12,-79.39 84.09,-79.39 84.09,-79.39 90.09,-79.39 96.09,-85.39 96.09,-91.39 96.09,-91.39 96.09,-106.78 96.09,-106.78 96.09,-112.78 90.09,-118.78 84.09,-118.78"/>
<text xml:space="preserve" text-anchor="middle" x="48.04" y="-105.91" font-family="Helvetica,sans-Serif" font-size="9.00">Territorio</text>
<text xml:space="preserve" text-anchor="middle" x="48.04" y="-96.16" font-family="Helvetica,sans-Serif" font-size="9.00">(instagentrificación)</text>
<text xml:space="preserve" text-anchor="middle" x="48.04" y="-86.41" font-family="Helvetica,sans-Serif" font-size="9.00">CE denso → VE</text>
</g>
<!-- A2 -->
<g id="node2" class="node">
<title>A2</title>
<path fill="white" stroke="black" d="M239.09,-119.53C239.09,-119.53 173,-119.53 173,-119.53 167,-119.53 161,-113.53 161,-107.53 161,-107.53 161,-90.64 161,-90.64 161,-84.64 167,-78.64 173,-78.64 173,-78.64 239.09,-78.64 239.09,-78.64 245.09,-78.64 251.09,-84.64 251.09,-90.64 251.09,-90.64 251.09,-107.53 251.09,-107.53 251.09,-113.53 245.09,-119.53 239.09,-119.53"/>
<text xml:space="preserve" text-anchor="middle" x="206.04" y="-106.66" font-family="Helvetica,sans-Serif" font-size="9.00">Gesto</text>
<text xml:space="preserve" text-anchor="middle" x="206.04" y="-96.91" font-family="Helvetica,sans-Serif" font-size="9.00">(Dadá → Brainrot)</text>
<text xml:space="preserve" text-anchor="middle" x="206.04" y="-85.66" font-family="Helvetica,sans-Serif" font-size="9.00">CE → 0</text>
</g>
<!-- A1&#45;&gt;A2 -->
<g id="edge1" class="edge">
<title>A1&#45;&gt;A2</title>
<path fill="none" stroke="black" stroke-width="1.2" d="M96.31,-99.09C112.9,-99.09 131.63,-99.09 148.86,-99.09"/>
<polygon fill="black" stroke="black" stroke-width="1.2" points="148.69,-102.59 158.69,-99.09 148.69,-95.59 148.69,-102.59"/>
<text xml:space="preserve" text-anchor="middle" x="128.54" y="-103.49" font-family="Helvetica,sans-Serif" font-size="8.00">intensificación</text>
</g>
<!-- A1&#45;&gt;A2 -->
<!-- B1 -->
<g id="node7" class="node">
<title>B1</title>
<path fill="white" stroke="black" d="M80.71,-43.52C80.71,-43.52 15.37,-43.52 15.37,-43.52 9.37,-43.52 3.37,-37.52 3.37,-31.52 3.37,-31.52 3.37,-16.12 3.37,-16.12 3.37,-10.12 9.37,-4.12 15.37,-4.12 15.37,-4.12 80.71,-4.12 80.71,-4.12 86.71,-4.12 92.71,-10.12 92.71,-16.12 92.71,-16.12 92.71,-31.52 92.71,-31.52 92.71,-37.52 86.71,-43.52 80.71,-43.52"/>
<text xml:space="preserve" text-anchor="middle" x="48.04" y="-30.64" font-family="Helvetica,sans-Serif" font-size="9.00">Captura posterior:</text>
<text xml:space="preserve" text-anchor="middle" x="48.04" y="-20.89" font-family="Helvetica,sans-Serif" font-size="9.00">escándalo →</text>
<text xml:space="preserve" text-anchor="middle" x="48.04" y="-9.64" font-family="Helvetica,sans-Serif" font-size="9.00">canonización</text>
</g>
<!-- A1&#45;&gt;B1 -->
<g id="edge6" class="edge">
<title>A1&#45;&gt;B1</title>
<path fill="none" stroke="black" stroke-width="1.2" stroke-dasharray="5,2" d="M48.04,-79.22C48.04,-68.36 48.04,-54.76 48.04,-43.88"/>
</g>
<!-- A3 -->
<g id="node3" class="node">
<title>A3</title>
<path fill="white" stroke="black" d="M373.09,-118.03C373.09,-118.03 313,-118.03 313,-118.03 307,-118.03 301,-112.03 301,-106.03 301,-106.03 301,-92.14 301,-92.14 301,-86.14 307,-80.14 313,-80.14 313,-80.14 373.09,-80.14 373.09,-80.14 379.09,-80.14 385.09,-86.14 385.09,-92.14 385.09,-92.14 385.09,-106.03 385.09,-106.03 385.09,-112.03 379.09,-118.03 373.09,-118.03"/>
<text xml:space="preserve" text-anchor="middle" x="343.04" y="-105.16" font-family="Helvetica,sans-Serif" font-size="9.00">Sujeto</text>
<text xml:space="preserve" text-anchor="middle" x="343.04" y="-95.41" font-family="Helvetica,sans-Serif" font-size="9.00">(profilicidad)</text>
<text xml:space="preserve" text-anchor="middle" x="343.04" y="-85.66" font-family="Helvetica,sans-Serif" font-size="9.00">identidad = perfil</text>
</g>
<!-- A2&#45;&gt;A3 -->
<g id="edge2" class="edge">
<title>A2&#45;&gt;A3</title>
<path fill="none" stroke="black" stroke-width="1.2" d="M251.28,-99.09C263.33,-99.09 276.47,-99.09 288.94,-99.09"/>
<polygon fill="black" stroke="black" stroke-width="1.2" points="288.82,-102.59 298.82,-99.09 288.82,-95.59 288.82,-102.59"/>
<text xml:space="preserve" text-anchor="middle" x="276.04" y="-112.49" font-family="Helvetica,sans-Serif" font-size="8.00">extensión</text>
<text xml:space="preserve" text-anchor="middle" x="276.04" y="-103.49" font-family="Helvetica,sans-Serif" font-size="8.00">al sujeto</text>
</g>
<!-- A2&#45;&gt;A3 -->
<!-- B2 -->
<g id="node8" class="node">
<title>B2</title>
<path fill="white" stroke="black" d="M243.21,-42.77C243.21,-42.77 168.87,-42.77 168.87,-42.77 162.87,-42.77 156.87,-36.77 156.87,-30.77 156.87,-30.77 156.87,-16.88 156.87,-16.88 156.87,-10.87 162.87,-4.88 168.87,-4.88 168.87,-4.88 243.21,-4.88 243.21,-4.88 249.21,-4.88 255.21,-10.88 255.21,-16.88 255.21,-16.88 255.21,-30.77 255.21,-30.77 255.21,-36.77 249.21,-42.77 243.21,-42.77"/>
<text xml:space="preserve" text-anchor="middle" x="206.04" y="-29.89" font-family="Helvetica,sans-Serif" font-size="9.00">Captura simultánea:</text>
<text xml:space="preserve" text-anchor="middle" x="206.04" y="-20.14" font-family="Helvetica,sans-Serif" font-size="9.00">nace dentro</text>
<text xml:space="preserve" text-anchor="middle" x="206.04" y="-10.39" font-family="Helvetica,sans-Serif" font-size="9.00">del aparato</text>
</g>
<!-- A2&#45;&gt;B2 -->
<g id="edge7" class="edge">
<title>A2&#45;&gt;B2</title>
<path fill="none" stroke="black" stroke-width="1.2" stroke-dasharray="5,2" d="M206.04,-78.45C206.04,-67.43 206.04,-53.77 206.04,-43"/>
</g>
<!-- A4 -->
<g id="node4" class="node">
<title>A4</title>
<path fill="white" stroke="black" d="M496.59,-118.03C496.59,-118.03 445.5,-118.03 445.5,-118.03 439.5,-118.03 433.5,-112.03 433.5,-106.03 433.5,-106.03 433.5,-92.14 433.5,-92.14 433.5,-86.14 439.5,-80.14 445.5,-80.14 445.5,-80.14 496.59,-80.14 496.59,-80.14 502.59,-80.14 508.59,-86.14 508.59,-92.14 508.59,-92.14 508.59,-106.03 508.59,-106.03 508.59,-112.03 502.59,-118.03 496.59,-118.03"/>
<text xml:space="preserve" text-anchor="middle" x="471.04" y="-105.16" font-family="Helvetica,sans-Serif" font-size="9.00">Neutralización</text>
<text xml:space="preserve" text-anchor="middle" x="471.04" y="-95.41" font-family="Helvetica,sans-Serif" font-size="9.00">cada vez más</text>
<text xml:space="preserve" text-anchor="middle" x="471.04" y="-85.66" font-family="Helvetica,sans-Serif" font-size="9.00">simultánea</text>
</g>
<!-- A3&#45;&gt;A4 -->
<g id="edge3" class="edge">
<title>A3&#45;&gt;A4</title>
<path fill="none" stroke="black" stroke-width="1.2" d="M385.31,-99.09C396.89,-99.09 409.55,-99.09 421.49,-99.09"/>
<polygon fill="black" stroke="black" stroke-width="1.2" points="421.32,-102.59 431.32,-99.09 421.32,-95.59 421.32,-102.59"/>
<text xml:space="preserve" text-anchor="middle" x="409.29" y="-103.49" font-family="Helvetica,sans-Serif" font-size="8.00">resultado</text>
</g>
<!-- A3&#45;&gt;A4 -->
<!-- B3 -->
<g id="node9" class="node">
<title>B3</title>
<path fill="white" stroke="black" d="M380.59,-42.77C380.59,-42.77 305.5,-42.77 305.5,-42.77 299.5,-42.77 293.5,-36.77 293.5,-30.77 293.5,-30.77 293.5,-16.88 293.5,-16.88 293.5,-10.87 299.5,-4.88 305.5,-4.88 305.5,-4.88 380.59,-4.88 380.59,-4.88 386.59,-4.88 392.59,-10.88 392.59,-16.88 392.59,-16.88 392.59,-30.77 392.59,-30.77 392.59,-36.77 386.59,-42.77 380.59,-42.77"/>
<text xml:space="preserve" text-anchor="middle" x="343.04" y="-29.89" font-family="Helvetica,sans-Serif" font-size="9.00">Captura constitutiva:</text>
<text xml:space="preserve" text-anchor="middle" x="343.04" y="-20.14" font-family="Helvetica,sans-Serif" font-size="9.00">el sujeto se</text>
<text xml:space="preserve" text-anchor="middle" x="343.04" y="-10.39" font-family="Helvetica,sans-Serif" font-size="9.00">produce como perfil</text>
</g>
<!-- A3&#45;&gt;B3 -->
<g id="edge8" class="edge">
<title>A3&#45;&gt;B3</title>
<path fill="none" stroke="black" stroke-width="1.2" stroke-dasharray="5,2" d="M343.04,-79.97C343.04,-68.79 343.04,-54.47 343.04,-43.23"/>
</g>
<!-- A5 -->
<g id="node5" class="node">
<title>A5</title>
<path fill="white" stroke="black" d="M640.59,-118.03C640.59,-118.03 583.5,-118.03 583.5,-118.03 577.5,-118.03 571.5,-112.03 571.5,-106.03 571.5,-106.03 571.5,-92.14 571.5,-92.14 571.5,-86.14 577.5,-80.14 583.5,-80.14 583.5,-80.14 640.59,-80.14 640.59,-80.14 646.59,-80.14 652.59,-86.14 652.59,-92.14 652.59,-92.14 652.59,-106.03 652.59,-106.03 652.59,-112.03 646.59,-118.03 640.59,-118.03"/>
<text xml:space="preserve" text-anchor="middle" x="612.04" y="-105.16" font-family="Helvetica,sans-Serif" font-size="9.00">Residuo de</text>
<text xml:space="preserve" text-anchor="middle" x="612.04" y="-95.41" font-family="Helvetica,sans-Serif" font-size="9.00">indisponibilidad</text>
<text xml:space="preserve" text-anchor="middle" x="612.04" y="-85.66" font-family="Helvetica,sans-Serif" font-size="9.00">(resonancia)</text>
</g>
<!-- A4&#45;&gt;A5 -->
<g id="edge4" class="edge">
<title>A4&#45;&gt;A5</title>
<path fill="none" stroke="black" stroke-width="1.2" d="M508.83,-99.09C524.47,-99.09 542.87,-99.09 559.78,-99.09"/>
<polygon fill="black" stroke="black" stroke-width="1.2" points="559.37,-102.59 569.37,-99.09 559.37,-95.59 559.37,-102.59"/>
<text xml:space="preserve" text-anchor="middle" x="540.04" y="-103.49" font-family="Helvetica,sans-Serif" font-size="8.00">pero persiste</text>
</g>
<!-- A4&#45;&gt;A5 -->
<!-- B4 -->
<g id="node10" class="node">
<title>B4</title>
<path fill="white" stroke="black" d="M493.21,-42.77C493.21,-42.77 448.87,-42.77 448.87,-42.77 442.87,-42.77 436.87,-36.77 436.87,-30.77 436.87,-30.77 436.87,-16.88 436.87,-16.88 436.87,-10.87 442.87,-4.88 448.87,-4.88 448.87,-4.88 493.21,-4.88 493.21,-4.88 499.21,-4.88 505.21,-10.88 505.21,-16.88 505.21,-16.88 505.21,-30.77 505.21,-30.77 505.21,-36.77 499.21,-42.77 493.21,-42.77"/>
<text xml:space="preserve" text-anchor="middle" x="471.04" y="-29.89" font-family="Helvetica,sans-Serif" font-size="9.00">Eficiencia</text>
<text xml:space="preserve" text-anchor="middle" x="471.04" y="-20.14" font-family="Helvetica,sans-Serif" font-size="9.00">creciente del</text>
<text xml:space="preserve" text-anchor="middle" x="471.04" y="-10.39" font-family="Helvetica,sans-Serif" font-size="9.00">dispositivo</text>
</g>
<!-- A4&#45;&gt;B4 -->
<g id="edge9" class="edge">
<title>A4&#45;&gt;B4</title>
<path fill="none" stroke="black" stroke-width="1.2" stroke-dasharray="5,2" d="M471.04,-79.97C471.04,-68.79 471.04,-54.47 471.04,-43.23"/>
</g>
<!-- A6 -->
<g id="node6" class="node">
<title>A6</title>
<path fill="white" stroke="black" d="M775.46,-118.78C775.46,-118.78 714.62,-118.78 714.62,-118.78 708.62,-118.78 702.62,-112.78 702.62,-106.78 702.62,-106.78 702.62,-91.39 702.62,-91.39 702.62,-85.39 708.62,-79.39 714.62,-79.39 714.62,-79.39 775.46,-79.39 775.46,-79.39 781.46,-79.39 787.46,-85.39 787.46,-91.39 787.46,-91.39 787.46,-106.78 787.46,-106.78 787.46,-112.78 781.46,-118.78 775.46,-118.78"/>
<text xml:space="preserve" text-anchor="middle" x="745.04" y="-105.91" font-family="Helvetica,sans-Serif" font-size="9.00">Paradoja del</text>
<text xml:space="preserve" text-anchor="middle" x="745.04" y="-96.16" font-family="Helvetica,sans-Serif" font-size="9.00">propio texto</text>
<text xml:space="preserve" text-anchor="middle" x="745.04" y="-86.41" font-family="Helvetica,sans-Serif" font-size="9.00">(CE acad. → VE)</text>
</g>
<!-- A5&#45;&gt;A6 -->
<g id="edge5" class="edge">
<title>A5&#45;&gt;A6</title>
<path fill="none" stroke="black" stroke-width="1.2" d="M653.03,-99.09C665.07,-99.09 678.43,-99.09 691.14,-99.09"/>
<polygon fill="black" stroke="black" stroke-width="1.2" points="690.77,-102.59 700.77,-99.09 690.77,-95.59 690.77,-102.59"/>
<text xml:space="preserve" text-anchor="middle" x="677.61" y="-112.49" font-family="Helvetica,sans-Serif" font-size="8.00">incluido</text>
<text xml:space="preserve" text-anchor="middle" x="677.61" y="-103.49" font-family="Helvetica,sans-Serif" font-size="8.00">este texto</text>
</g>
<!-- A5&#45;&gt;A6 -->
<!-- B5 -->
<g id="node11" class="node">
<title>B5</title>
<path fill="white" stroke="black" d="M653.71,-47.64C653.71,-47.64 570.38,-47.64 570.38,-47.64 564.38,-47.64 558.38,-41.64 558.38,-35.64 558.38,-35.64 558.38,-12 558.38,-12 558.38,-6 564.38,0 570.38,0 570.38,0 653.71,0 653.71,0 659.71,0 665.71,-6 665.71,-12 665.71,-12 665.71,-35.64 665.71,-35.64 665.71,-41.64 659.71,-47.64 653.71,-47.64"/>
<text xml:space="preserve" text-anchor="middle" x="612.04" y="-34.77" font-family="Helvetica,sans-Serif" font-size="9.00">Rosa:</text>
<text xml:space="preserve" text-anchor="middle" x="612.04" y="-25.02" font-family="Helvetica,sans-Serif" font-size="9.00">lo que no se deja</text>
<text xml:space="preserve" text-anchor="middle" x="612.04" y="-15.27" font-family="Helvetica,sans-Serif" font-size="9.00">poner a disponibilidad</text>
<text xml:space="preserve" text-anchor="middle" x="612.04" y="-5.52" font-family="Helvetica,sans-Serif" font-size="9.00">(p. 62)</text>
</g>
<!-- A5&#45;&gt;B5 -->
<g id="edge10" class="edge">
<title>A5&#45;&gt;B5</title>
<path fill="none" stroke="black" stroke-width="1.2" stroke-dasharray="5,2" d="M612.04,-79.97C612.04,-70.31 612.04,-58.32 612.04,-47.99"/>
</g>
<!-- B1&#45;&gt;B2 -->
<!-- B2&#45;&gt;B3 -->
<!-- B3&#45;&gt;B4 -->
<!-- B4&#45;&gt;B5 -->
</g>
</svg>
