<?xml version="1.0" encoding="UTF-8" standalone="no"?>
<!DOCTYPE svg PUBLIC "-//W3C//DTD SVG 1.1//EN"
 "http://www.w3.org/Graphics/SVG/1.1/DTD/svg11.dtd">
<!-- Generated by graphviz version 14.0.5 (20251129.0259)
 -->
<!-- Title: EsquemaHuidaDelTiempo Pages: 1 -->
<svg width="969pt" height="122pt"
 viewBox="0.00 0.00 969.00 122.00" xmlns="http://www.w3.org/2000/svg" xmlns:xlink="http://www.w3.org/1999/xlink">
<g id="graph0" class="graph" transform="scale(1 1) rotate(0) translate(8.64 113.53)">
<title>EsquemaHuidaDelTiempo</title>
<polygon fill="white" stroke="none" points="-8.64,8.64 -8.64,-113.53 960.23,-113.53 960.23,8.64 -8.64,8.64"/>
<!-- A1 -->
<g id="node1" class="node">
<title>A1</title>
<path fill="white" stroke="black" d="M90.09,-104.89C90.09,-104.89 12,-104.89 12,-104.89 6,-104.89 0,-98.89 0,-92.89 0,-92.89 0,-79 0,-79 0,-73 6,-67 12,-67 12,-67 90.09,-67 90.09,-67 96.09,-67 102.09,-73 102.09,-79 102.09,-79 102.09,-92.89 102.09,-92.89 102.09,-98.89 96.09,-104.89 90.09,-104.89"/>
<text xml:space="preserve" text-anchor="middle" x="51.04" y="-92.02" font-family="Helvetica,sans-Serif" font-size="9.00">Zúrich 1916&#45;1917</text>
<text xml:space="preserve" text-anchor="middle" x="51.04" y="-82.27" font-family="Helvetica,sans-Serif" font-size="9.00">(Cabaret Voltaire,</text>
<text xml:space="preserve" text-anchor="middle" x="51.04" y="-72.52" font-family="Helvetica,sans-Serif" font-size="9.00">veladas, manifiestos)</text>
</g>
<!-- A2 -->
<g id="node2" class="node">
<title>A2</title>
<path fill="white" stroke="black" d="M240.09,-104.89C240.09,-104.89 180,-104.89 180,-104.89 174,-104.89 168,-98.89 168,-92.89 168,-92.89 168,-79 168,-79 168,-73 174,-67 180,-67 180,-67 240.09,-67 240.09,-67 246.09,-67 252.09,-73 252.09,-79 252.09,-79 252.09,-92.89 252.09,-92.89 252.09,-98.89 246.09,-104.89 240.09,-104.89"/>
<text xml:space="preserve" text-anchor="middle" x="210.04" y="-92.02" font-family="Helvetica,sans-Serif" font-size="9.00">Gesto dadaísta</text>
<text xml:space="preserve" text-anchor="middle" x="210.04" y="-82.27" font-family="Helvetica,sans-Serif" font-size="9.00">(interrupción,</text>
<text xml:space="preserve" text-anchor="middle" x="210.04" y="-72.52" font-family="Helvetica,sans-Serif" font-size="9.00">catarsis, ruptura)</text>
</g>
<!-- A1&#45;&gt;A2 -->
<g id="edge1" class="edge">
<title>A1&#45;&gt;A2</title>
<path fill="none" stroke="black" stroke-width="1.2" d="M102.23,-85.94C119.42,-85.94 138.63,-85.94 156.03,-85.94"/>
<polygon fill="black" stroke="black" stroke-width="1.2" points="155.92,-89.45 165.92,-85.95 155.92,-82.45 155.92,-89.45"/>
<text xml:space="preserve" text-anchor="middle" x="135.04" y="-90.34" font-family="Helvetica,sans-Serif" font-size="8.00">emerge como</text>
</g>
<!-- A1&#45;&gt;A2 -->
<!-- A3 -->
<g id="node3" class="node">
<title>A3</title>
<path fill="white" stroke="black" d="M429.46,-103.94C429.46,-103.94 326.62,-103.94 326.62,-103.94 320.62,-103.94 314.62,-97.94 314.62,-91.94 314.62,-91.94 314.62,-79.94 314.62,-79.94 314.62,-73.94 320.62,-67.94 326.62,-67.94 326.62,-67.94 429.46,-67.94 429.46,-67.94 435.46,-67.94 441.46,-73.94 441.46,-79.94 441.46,-79.94 441.46,-91.94 441.46,-91.94 441.46,-97.94 435.46,-103.94 429.46,-103.94"/>
<text xml:space="preserve" text-anchor="middle" x="378.04" y="-87.14" font-family="Helvetica,sans-Serif" font-size="9.00">No basta reducirlo a</text>
<text xml:space="preserve" text-anchor="middle" x="378.04" y="-77.39" font-family="Helvetica,sans-Serif" font-size="9.00">&quot;irracionalidad &#45;&gt; fascismo&quot;</text>
</g>
<!-- A2&#45;&gt;A3 -->
<g id="edge2" class="edge">
<title>A2&#45;&gt;A3</title>
<path fill="none" stroke="black" stroke-width="1.2" d="M252.44,-85.94C267.68,-85.94 285.37,-85.94 302.58,-85.94"/>
<polygon fill="black" stroke="black" stroke-width="1.2" points="302.56,-89.45 312.56,-85.95 302.56,-82.45 302.56,-89.45"/>
<text xml:space="preserve" text-anchor="middle" x="283.36" y="-90.34" font-family="Helvetica,sans-Serif" font-size="8.00">no equivale a</text>
</g>
<!-- A2&#45;&gt;A3 -->
<!-- A4 -->
<g id="node4" class="node">
<title>A4</title>
<path fill="white" stroke="black" d="M622.09,-104.89C622.09,-104.89 538,-104.89 538,-104.89 532,-104.89 526,-98.89 526,-92.89 526,-92.89 526,-79 526,-79 526,-73 532,-67 538,-67 538,-67 622.09,-67 622.09,-67 628.09,-67 634.09,-73 634.09,-79 634.09,-79 634.09,-92.89 634.09,-92.89 634.09,-98.89 628.09,-104.89 622.09,-104.89"/>
<text xml:space="preserve" text-anchor="middle" x="580.04" y="-92.02" font-family="Helvetica,sans-Serif" font-size="9.00">Gesto como operación</text>
<text xml:space="preserve" text-anchor="middle" x="580.04" y="-82.27" font-family="Helvetica,sans-Serif" font-size="9.00">(excede el acto,</text>
<text xml:space="preserve" text-anchor="middle" x="580.04" y="-72.52" font-family="Helvetica,sans-Serif" font-size="9.00">reordena la escena)</text>
</g>
<!-- A3&#45;&gt;A4 -->
<g id="edge3" class="edge">
<title>A3&#45;&gt;A4</title>
<path fill="none" stroke="black" stroke-width="1.2" d="M441.96,-85.94C464.89,-85.94 490.79,-85.94 513.91,-85.94"/>
<polygon fill="black" stroke="black" stroke-width="1.2" points="513.9,-89.45 523.9,-85.95 513.9,-82.45 513.9,-89.45"/>
<text xml:space="preserve" text-anchor="middle" x="483.73" y="-90.34" font-family="Helvetica,sans-Serif" font-size="8.00">conviene leer como</text>
</g>
<!-- A3&#45;&gt;A4 -->
<!-- B1 -->
<g id="node7" class="node">
<title>B1</title>
<path fill="white" stroke="black" d="M431.34,-36C431.34,-36 324.75,-36 324.75,-36 318.75,-36 312.75,-30 312.75,-24 312.75,-24 312.75,-12 312.75,-12 312.75,-6 318.75,0 324.75,0 324.75,0 431.34,0 431.34,0 437.34,0 443.34,-6 443.34,-12 443.34,-12 443.34,-24 443.34,-24 443.34,-30 437.34,-36 431.34,-36"/>
<text xml:space="preserve" text-anchor="middle" x="378.04" y="-19.2" font-family="Helvetica,sans-Serif" font-size="9.00">1917: del gesto al programa</text>
<text xml:space="preserve" text-anchor="middle" x="378.04" y="-9.45" font-family="Helvetica,sans-Serif" font-size="9.00">(codificación y circulación)</text>
</g>
<!-- A3&#45;&gt;B1 -->
<g id="edge6" class="edge">
<title>A3&#45;&gt;B1</title>
<path fill="none" stroke="black" stroke-width="1.2" stroke-dasharray="5,2" d="M378.04,-67.62C378.04,-58 378.04,-46.07 378.04,-36.44"/>
</g>
<!-- A5 -->
<g id="node5" class="node">
<title>A5</title>
<path fill="white" stroke="black" d="M778.21,-104.89C778.21,-104.89 691.88,-104.89 691.88,-104.89 685.88,-104.89 679.88,-98.89 679.88,-92.89 679.88,-92.89 679.88,-79 679.88,-79 679.88,-73 685.88,-67 691.88,-67 691.88,-67 778.21,-67 778.21,-67 784.21,-67 790.21,-73 790.21,-79 790.21,-79 790.21,-92.89 790.21,-92.89 790.21,-98.89 784.21,-104.89 778.21,-104.89"/>
<text xml:space="preserve" text-anchor="middle" x="735.04" y="-92.02" font-family="Helvetica,sans-Serif" font-size="9.00">Captura cultural</text>
<text xml:space="preserve" text-anchor="middle" x="735.04" y="-82.27" font-family="Helvetica,sans-Serif" font-size="9.00">(industria cultural,</text>
<text xml:space="preserve" text-anchor="middle" x="735.04" y="-72.52" font-family="Helvetica,sans-Serif" font-size="9.00">plataforma, dispositivo)</text>
</g>
<!-- A4&#45;&gt;A5 -->
<g id="edge4" class="edge">
<title>A4&#45;&gt;A5</title>
<path fill="none" stroke="black" stroke-width="1.2" d="M634.26,-85.94C645.14,-85.94 656.7,-85.94 667.96,-85.94"/>
<polygon fill="black" stroke="black" stroke-width="1.2" points="667.74,-89.45 677.74,-85.95 667.74,-82.45 667.74,-89.45"/>
<text xml:space="preserve" text-anchor="middle" x="656.98" y="-90.34" font-family="Helvetica,sans-Serif" font-size="8.00">entra en</text>
</g>
<!-- A4&#45;&gt;A5 -->
<!-- A6 -->
<g id="node6" class="node">
<title>A6</title>
<path fill="white" stroke="black" d="M939.59,-104.89C939.59,-104.89 846.5,-104.89 846.5,-104.89 840.5,-104.89 834.5,-98.89 834.5,-92.89 834.5,-92.89 834.5,-79 834.5,-79 834.5,-73 840.5,-67 846.5,-67 846.5,-67 939.59,-67 939.59,-67 945.59,-67 951.59,-73 951.59,-79 951.59,-79 951.59,-92.89 951.59,-92.89 951.59,-98.89 945.59,-104.89 939.59,-104.89"/>
<text xml:space="preserve" text-anchor="middle" x="893.04" y="-92.02" font-family="Helvetica,sans-Serif" font-size="9.00">Resultado</text>
<text xml:space="preserve" text-anchor="middle" x="893.04" y="-82.27" font-family="Helvetica,sans-Serif" font-size="9.00">(ruptura codificada como</text>
<text xml:space="preserve" text-anchor="middle" x="893.04" y="-72.52" font-family="Helvetica,sans-Serif" font-size="9.00">forma circulable)</text>
</g>
<!-- A5&#45;&gt;A6 -->
<g id="edge5" class="edge">
<title>A5&#45;&gt;A6</title>
<path fill="none" stroke="black" stroke-width="1.2" d="M790.31,-85.94C800.7,-85.94 811.69,-85.94 822.47,-85.94"/>
<polygon fill="black" stroke="black" stroke-width="1.2" points="822.24,-89.45 832.24,-85.95 822.24,-82.45 822.24,-89.45"/>
<text xml:space="preserve" text-anchor="middle" x="812.36" y="-90.34" font-family="Helvetica,sans-Serif" font-size="8.00">produce</text>
</g>
<!-- A5&#45;&gt;A6 -->
<!-- B2 -->
<g id="node8" class="node">
<title>B2</title>
<path fill="white" stroke="black" d="M770.71,-36C770.71,-36 699.38,-36 699.38,-36 693.38,-36 687.38,-30 687.38,-24 687.38,-24 687.38,-12 687.38,-12 687.38,-6 693.38,0 699.38,0 699.38,0 770.71,0 770.71,0 776.71,0 782.71,-6 782.71,-12 782.71,-12 782.71,-24 782.71,-24 782.71,-30 776.71,-36 770.71,-36"/>
<text xml:space="preserve" text-anchor="middle" x="735.04" y="-19.2" font-family="Helvetica,sans-Serif" font-size="9.00">Lo decisivo es el</text>
<text xml:space="preserve" text-anchor="middle" x="735.04" y="-9.45" font-family="Helvetica,sans-Serif" font-size="9.00">régimen de captura</text>
</g>
<!-- A5&#45;&gt;B2 -->
<g id="edge7" class="edge">
<title>A5&#45;&gt;B2</title>
<path fill="none" stroke="black" stroke-width="1.2" stroke-dasharray="5,2" d="M735.04,-66.58C735.04,-57.12 735.04,-45.67 735.04,-36.36"/>
</g>
<!-- B3 -->
<g id="node9" class="node">
<title>B3</title>
<path fill="white" stroke="black" d="M932.09,-36C932.09,-36 854,-36 854,-36 848,-36 842,-30 842,-24 842,-24 842,-12 842,-12 842,-6 848,0 854,0 854,0 932.09,0 932.09,0 938.09,0 944.09,-6 944.09,-12 944.09,-12 944.09,-24 944.09,-24 944.09,-30 938.09,-36 932.09,-36"/>
<text xml:space="preserve" text-anchor="middle" x="893.04" y="-19.2" font-family="Helvetica,sans-Serif" font-size="9.00">Negatividad crítica &#45;&gt;</text>
<text xml:space="preserve" text-anchor="middle" x="893.04" y="-9.45" font-family="Helvetica,sans-Serif" font-size="9.00">valor de exposición</text>
</g>
<!-- A6&#45;&gt;B3 -->
<g id="edge8" class="edge">
<title>A6&#45;&gt;B3</title>
<path fill="none" stroke="black" stroke-width="1.2" stroke-dasharray="5,2" d="M893.04,-66.58C893.04,-57.12 893.04,-45.67 893.04,-36.36"/>
</g>
<!-- B1&#45;&gt;B2 -->
<!-- B2&#45;&gt;B3 -->
</g>
</svg>
