<?xml version="1.0" encoding="UTF-8" standalone="no"?>
<!DOCTYPE svg PUBLIC "-//W3C//DTD SVG 1.1//EN"
 "http://www.w3.org/Graphics/SVG/1.1/DTD/svg11.dtd">
<!-- Generated by graphviz version 14.0.5 (20251129.0259)
 -->
<!-- Title: EsquemaProfilicidad Pages: 1 -->
<svg width="879pt" height="135pt"
 viewBox="0.00 0.00 879.00 135.00" xmlns="http://www.w3.org/2000/svg" xmlns:xlink="http://www.w3.org/1999/xlink">
<g id="graph0" class="graph" transform="scale(1 1) rotate(0) translate(8.64 126.67)">
<title>EsquemaProfilicidad</title>
<polygon fill="white" stroke="none" points="-8.64,8.64 -8.64,-126.67 870.85,-126.67 870.85,8.64 -8.64,8.64"/>
<!-- A1 -->
<g id="node1" class="node">
<title>A1</title>
<path fill="white" stroke="black" d="M89.71,-118.03C89.71,-118.03 14.62,-118.03 14.62,-118.03 8.62,-118.03 2.62,-112.03 2.62,-106.03 2.62,-106.03 2.62,-90.64 2.62,-90.64 2.62,-84.64 8.62,-78.64 14.62,-78.64 14.62,-78.64 89.71,-78.64 89.71,-78.64 95.71,-78.64 101.71,-84.64 101.71,-90.64 101.71,-90.64 101.71,-106.03 101.71,-106.03 101.71,-112.03 95.71,-118.03 89.71,-118.03"/>
<text xml:space="preserve" text-anchor="middle" x="52.17" y="-105.16" font-family="Helvetica,sans-Serif" font-size="9.00">Conversión CE→VE</text>
<text xml:space="preserve" text-anchor="middle" x="52.17" y="-93.91" font-family="Helvetica,sans-Serif" font-size="9.00">alcanza a los</text>
<text xml:space="preserve" text-anchor="middle" x="52.17" y="-84.16" font-family="Helvetica,sans-Serif" font-size="9.00">sujetos</text>
</g>
<!-- A2 -->
<g id="node2" class="node">
<title>A2</title>
<path fill="white" stroke="black" d="M254.21,-118.03C254.21,-118.03 176.12,-118.03 176.12,-118.03 170.12,-118.03 164.12,-112.03 164.12,-106.03 164.12,-106.03 164.12,-90.64 164.12,-90.64 164.12,-84.64 170.12,-78.64 176.12,-78.64 176.12,-78.64 254.21,-78.64 254.21,-78.64 260.21,-78.64 266.21,-84.64 266.21,-90.64 266.21,-90.64 266.21,-106.03 266.21,-106.03 266.21,-112.03 260.21,-118.03 254.21,-118.03"/>
<text xml:space="preserve" text-anchor="middle" x="215.17" y="-105.16" font-family="Helvetica,sans-Serif" font-size="9.00">Autenticidad →</text>
<text xml:space="preserve" text-anchor="middle" x="215.17" y="-93.91" font-family="Helvetica,sans-Serif" font-size="9.00">Profilicidad</text>
<text xml:space="preserve" text-anchor="middle" x="215.17" y="-84.16" font-family="Helvetica,sans-Serif" font-size="9.00">(curación de perfiles)</text>
</g>
<!-- A1&#45;&gt;A2 -->
<g id="edge1" class="edge">
<title>A1&#45;&gt;A2</title>
<path fill="none" stroke="black" stroke-width="1.2" d="M101.96,-98.34C117.86,-98.34 135.67,-98.34 152.36,-98.34"/>
<polygon fill="black" stroke="black" stroke-width="1.2" points="151.89,-101.84 161.89,-98.34 151.89,-94.84 151.89,-101.84"/>
<text xml:space="preserve" text-anchor="middle" x="132.92" y="-111.74" font-family="Helvetica,sans-Serif" font-size="8.00">se manifiesta</text>
<text xml:space="preserve" text-anchor="middle" x="132.92" y="-102.74" font-family="Helvetica,sans-Serif" font-size="8.00">como</text>
</g>
<!-- A1&#45;&gt;A2 -->
<!-- B1 -->
<g id="node7" class="node">
<title>B1</title>
<path fill="white" stroke="black" d="M92.34,-42.77C92.34,-42.77 12,-42.77 12,-42.77 6,-42.77 0,-36.77 0,-30.77 0,-30.77 0,-16.88 0,-16.88 0,-10.87 6,-4.88 12,-4.88 12,-4.88 92.34,-4.88 92.34,-4.88 98.34,-4.88 104.34,-10.88 104.34,-16.88 104.34,-16.88 104.34,-30.77 104.34,-30.77 104.34,-36.77 98.34,-42.77 92.34,-42.77"/>
<text xml:space="preserve" text-anchor="middle" x="52.17" y="-29.89" font-family="Helvetica,sans-Serif" font-size="9.00">Adorno:</text>
<text xml:space="preserve" text-anchor="middle" x="52.17" y="-20.14" font-family="Helvetica,sans-Serif" font-size="9.00">pseudoindividualidad</text>
<text xml:space="preserve" text-anchor="middle" x="52.17" y="-10.39" font-family="Helvetica,sans-Serif" font-size="9.00">(p. 125)</text>
</g>
<!-- A1&#45;&gt;B1 -->
<g id="edge6" class="edge">
<title>A1&#45;&gt;B1</title>
<path fill="none" stroke="black" stroke-width="1.2" stroke-dasharray="5,2" d="M52.17,-78.28C52.17,-67.37 52.17,-53.76 52.17,-43"/>
</g>
<!-- A3 -->
<g id="node3" class="node">
<title>A3</title>
<path fill="white" stroke="black" d="M407.09,-117.28C407.09,-117.28 349.25,-117.28 349.25,-117.28 343.25,-117.28 337.25,-111.28 337.25,-105.28 337.25,-105.28 337.25,-91.39 337.25,-91.39 337.25,-85.39 343.25,-79.39 349.25,-79.39 349.25,-79.39 407.09,-79.39 407.09,-79.39 413.09,-79.39 419.09,-85.39 419.09,-91.39 419.09,-91.39 419.09,-105.28 419.09,-105.28 419.09,-111.28 413.09,-117.28 407.09,-117.28"/>
<text xml:space="preserve" text-anchor="middle" x="378.17" y="-104.41" font-family="Helvetica,sans-Serif" font-size="9.00">Observación de</text>
<text xml:space="preserve" text-anchor="middle" x="378.17" y="-94.66" font-family="Helvetica,sans-Serif" font-size="9.00">segundo orden</text>
<text xml:space="preserve" text-anchor="middle" x="378.17" y="-84.91" font-family="Helvetica,sans-Serif" font-size="9.00">(cómo soy visto)</text>
</g>
<!-- A2&#45;&gt;A3 -->
<g id="edge2" class="edge">
<title>A2&#45;&gt;A3</title>
<path fill="none" stroke="black" stroke-width="1.2" d="M266.3,-98.34C285,-98.34 306.19,-98.34 325.05,-98.34"/>
<polygon fill="black" stroke="black" stroke-width="1.2" points="324.95,-101.84 334.95,-98.34 324.95,-94.84 324.95,-101.84"/>
<text xml:space="preserve" text-anchor="middle" x="301.73" y="-102.74" font-family="Helvetica,sans-Serif" font-size="8.00">opera mediante</text>
</g>
<!-- A2&#45;&gt;A3 -->
<!-- B2 -->
<g id="node8" class="node">
<title>B2</title>
<path fill="white" stroke="black" d="M250.46,-42.77C250.46,-42.77 179.87,-42.77 179.87,-42.77 173.87,-42.77 167.87,-36.77 167.87,-30.77 167.87,-30.77 167.87,-16.88 167.87,-16.88 167.87,-10.87 173.87,-4.88 179.87,-4.88 179.87,-4.88 250.46,-4.88 250.46,-4.88 256.46,-4.88 262.46,-10.88 262.46,-16.88 262.46,-16.88 262.46,-30.77 262.46,-30.77 262.46,-36.77 256.46,-42.77 250.46,-42.77"/>
<text xml:space="preserve" text-anchor="middle" x="215.17" y="-29.89" font-family="Helvetica,sans-Serif" font-size="9.00">Moeller:</text>
<text xml:space="preserve" text-anchor="middle" x="215.17" y="-20.14" font-family="Helvetica,sans-Serif" font-size="9.00">&quot;become who you</text>
<text xml:space="preserve" text-anchor="middle" x="215.17" y="-10.39" font-family="Helvetica,sans-Serif" font-size="9.00">wish to be seen as&quot;</text>
</g>
<!-- A2&#45;&gt;B2 -->
<g id="edge7" class="edge">
<title>A2&#45;&gt;B2</title>
<path fill="none" stroke="black" stroke-width="1.2" stroke-dasharray="5,2" d="M215.17,-78.28C215.17,-67.37 215.17,-53.76 215.17,-43"/>
</g>
<!-- A4 -->
<g id="node4" class="node">
<title>A4</title>
<path fill="white" stroke="black" d="M584.59,-117.28C584.59,-117.28 499.75,-117.28 499.75,-117.28 493.75,-117.28 487.75,-111.28 487.75,-105.28 487.75,-105.28 487.75,-91.39 487.75,-91.39 487.75,-85.39 493.75,-79.39 499.75,-79.39 499.75,-79.39 584.59,-79.39 584.59,-79.39 590.59,-79.39 596.59,-85.39 596.59,-91.39 596.59,-91.39 596.59,-105.28 596.59,-105.28 596.59,-111.28 590.59,-117.28 584.59,-117.28"/>
<text xml:space="preserve" text-anchor="middle" x="542.17" y="-104.41" font-family="Helvetica,sans-Serif" font-size="9.00">Disponibilización</text>
<text xml:space="preserve" text-anchor="middle" x="542.17" y="-94.66" font-family="Helvetica,sans-Serif" font-size="9.00">de la identidad</text>
<text xml:space="preserve" text-anchor="middle" x="542.17" y="-84.91" font-family="Helvetica,sans-Serif" font-size="9.00">(4 momentos de Rosa)</text>
</g>
<!-- A3&#45;&gt;A4 -->
<g id="edge3" class="edge">
<title>A3&#45;&gt;A4</title>
<path fill="none" stroke="black" stroke-width="1.2" d="M419.55,-98.34C436.61,-98.34 456.79,-98.34 475.81,-98.34"/>
<polygon fill="black" stroke="black" stroke-width="1.2" points="475.65,-101.84 485.65,-98.34 475.65,-94.84 475.65,-101.84"/>
<text xml:space="preserve" text-anchor="middle" x="453.42" y="-102.74" font-family="Helvetica,sans-Serif" font-size="8.00">posibilitada por</text>
</g>
<!-- A3&#45;&gt;A4 -->
<!-- B3 -->
<g id="node9" class="node">
<title>B3</title>
<path fill="white" stroke="black" d="M399.21,-42.77C399.21,-42.77 357.12,-42.77 357.12,-42.77 351.12,-42.77 345.12,-36.77 345.12,-30.77 345.12,-30.77 345.12,-16.88 345.12,-16.88 345.12,-10.87 351.12,-4.88 357.12,-4.88 357.12,-4.88 399.21,-4.88 399.21,-4.88 405.21,-4.88 411.21,-10.88 411.21,-16.88 411.21,-16.88 411.21,-30.77 411.21,-30.77 411.21,-36.77 405.21,-42.77 399.21,-42.77"/>
<text xml:space="preserve" text-anchor="middle" x="378.17" y="-29.89" font-family="Helvetica,sans-Serif" font-size="9.00">Luhmann:</text>
<text xml:space="preserve" text-anchor="middle" x="378.17" y="-20.14" font-family="Helvetica,sans-Serif" font-size="9.00">observación</text>
<text xml:space="preserve" text-anchor="middle" x="378.17" y="-10.39" font-family="Helvetica,sans-Serif" font-size="9.00">de 2.° orden</text>
</g>
<!-- A3&#45;&gt;B3 -->
<g id="edge8" class="edge">
<title>A3&#45;&gt;B3</title>
<path fill="none" stroke="black" stroke-width="1.2" stroke-dasharray="5,2" d="M378.17,-79.04C378.17,-68.04 378.17,-54.1 378.17,-43.11"/>
</g>
<!-- A5 -->
<g id="node5" class="node">
<title>A5</title>
<path fill="white" stroke="black" d="M727.84,-117.28C727.84,-117.28 662.5,-117.28 662.5,-117.28 656.5,-117.28 650.5,-111.28 650.5,-105.28 650.5,-105.28 650.5,-91.39 650.5,-91.39 650.5,-85.39 656.5,-79.39 662.5,-79.39 662.5,-79.39 727.84,-79.39 727.84,-79.39 733.84,-79.39 739.84,-85.39 739.84,-91.39 739.84,-91.39 739.84,-105.28 739.84,-105.28 739.84,-111.28 733.84,-117.28 727.84,-117.28"/>
<text xml:space="preserve" text-anchor="middle" x="695.17" y="-104.41" font-family="Helvetica,sans-Serif" font-size="9.00">Resistencia</text>
<text xml:space="preserve" text-anchor="middle" x="695.17" y="-94.66" font-family="Helvetica,sans-Serif" font-size="9.00">incorporada</text>
<text xml:space="preserve" text-anchor="middle" x="695.17" y="-84.91" font-family="Helvetica,sans-Serif" font-size="9.00">(anti&#45;gratificación)</text>
</g>
<!-- A4&#45;&gt;A5 -->
<g id="edge4" class="edge">
<title>A4&#45;&gt;A5</title>
<path fill="none" stroke="black" stroke-width="1.2" d="M596.97,-98.34C610.5,-98.34 625.02,-98.34 638.63,-98.34"/>
<polygon fill="black" stroke="black" stroke-width="1.2" points="638.49,-101.84 648.49,-98.34 638.49,-94.84 638.49,-101.84"/>
<text xml:space="preserve" text-anchor="middle" x="623.54" y="-111.74" font-family="Helvetica,sans-Serif" font-size="8.00">incluso la</text>
<text xml:space="preserve" text-anchor="middle" x="623.54" y="-102.74" font-family="Helvetica,sans-Serif" font-size="8.00">resistencia</text>
</g>
<!-- A4&#45;&gt;A5 -->
<!-- B4 -->
<g id="node10" class="node">
<title>B4</title>
<path fill="white" stroke="black" d="M585.71,-47.64C585.71,-47.64 498.62,-47.64 498.62,-47.64 492.62,-47.64 486.62,-41.64 486.62,-35.64 486.62,-35.64 486.62,-12 486.62,-12 486.62,-6 492.62,0 498.62,0 498.62,0 585.71,0 585.71,0 591.71,0 597.71,-6 597.71,-12 597.71,-12 597.71,-35.64 597.71,-35.64 597.71,-41.64 591.71,-47.64 585.71,-47.64"/>
<text xml:space="preserve" text-anchor="middle" x="542.17" y="-34.77" font-family="Helvetica,sans-Serif" font-size="9.00">Rosa:</text>
<text xml:space="preserve" text-anchor="middle" x="542.17" y="-25.02" font-family="Helvetica,sans-Serif" font-size="9.00">hacer visible,</text>
<text xml:space="preserve" text-anchor="middle" x="542.17" y="-15.27" font-family="Helvetica,sans-Serif" font-size="9.00">alcanzable, dominable,</text>
<text xml:space="preserve" text-anchor="middle" x="542.17" y="-5.52" font-family="Helvetica,sans-Serif" font-size="9.00">utilizable (p. 32)</text>
</g>
<!-- A4&#45;&gt;B4 -->
<g id="edge9" class="edge">
<title>A4&#45;&gt;B4</title>
<path fill="none" stroke="black" stroke-width="1.2" stroke-dasharray="5,2" d="M542.17,-79.04C542.17,-69.64 542.17,-58.09 542.17,-48.06"/>
</g>
<!-- A6 -->
<g id="node6" class="node">
<title>A6</title>
<path fill="white" stroke="black" d="M850.21,-117.28C850.21,-117.28 808.12,-117.28 808.12,-117.28 802.12,-117.28 796.12,-111.28 796.12,-105.28 796.12,-105.28 796.12,-91.39 796.12,-91.39 796.12,-85.39 802.12,-79.39 808.12,-79.39 808.12,-79.39 850.21,-79.39 850.21,-79.39 856.21,-79.39 862.21,-85.39 862.21,-91.39 862.21,-91.39 862.21,-105.28 862.21,-105.28 862.21,-111.28 856.21,-117.28 850.21,-117.28"/>
<text xml:space="preserve" text-anchor="middle" x="829.17" y="-104.41" font-family="Helvetica,sans-Serif" font-size="9.00">Residuo:</text>
<text xml:space="preserve" text-anchor="middle" x="829.17" y="-94.66" font-family="Helvetica,sans-Serif" font-size="9.00">resonancia</text>
<text xml:space="preserve" text-anchor="middle" x="829.17" y="-84.91" font-family="Helvetica,sans-Serif" font-size="9.00">indisponible</text>
</g>
<!-- A5&#45;&gt;A6 -->
<g id="edge5" class="edge">
<title>A5&#45;&gt;A6</title>
<path fill="none" stroke="black" stroke-width="1.2" d="M740.16,-98.34C754.42,-98.34 770.17,-98.34 784.41,-98.34"/>
<polygon fill="black" stroke="black" stroke-width="1.2" points="784.13,-101.84 794.13,-98.34 784.13,-94.84 784.13,-101.84"/>
<text xml:space="preserve" text-anchor="middle" x="767.98" y="-102.74" font-family="Helvetica,sans-Serif" font-size="8.00">pero queda</text>
</g>
<!-- A5&#45;&gt;A6 -->
<!-- B5 -->
<g id="node11" class="node">
<title>B5</title>
<path fill="white" stroke="black" d="M735.71,-47.64C735.71,-47.64 654.62,-47.64 654.62,-47.64 648.62,-47.64 642.62,-41.64 642.62,-35.64 642.62,-35.64 642.62,-12 642.62,-12 642.62,-6 648.62,0 654.62,0 654.62,0 735.71,0 735.71,0 741.71,0 747.71,-6 747.71,-12 747.71,-12 747.71,-35.64 747.71,-35.64 747.71,-41.64 741.71,-47.64 735.71,-47.64"/>
<text xml:space="preserve" text-anchor="middle" x="695.17" y="-34.77" font-family="Helvetica,sans-Serif" font-size="9.00">Götzfried &amp;</text>
<text xml:space="preserve" text-anchor="middle" x="695.17" y="-25.02" font-family="Helvetica,sans-Serif" font-size="9.00">Heitmayer:</text>
<text xml:space="preserve" text-anchor="middle" x="695.17" y="-15.27" font-family="Helvetica,sans-Serif" font-size="9.00">resistencia que</text>
<text xml:space="preserve" text-anchor="middle" x="695.17" y="-5.52" font-family="Helvetica,sans-Serif" font-size="9.00">la plataforma absorbe</text>
</g>
<!-- A5&#45;&gt;B5 -->
<g id="edge10" class="edge">
<title>A5&#45;&gt;B5</title>
<path fill="none" stroke="black" stroke-width="1.2" stroke-dasharray="5,2" d="M695.17,-79.04C695.17,-69.64 695.17,-58.09 695.17,-48.06"/>
</g>
<!-- B1&#45;&gt;B2 -->
<!-- B2&#45;&gt;B3 -->
<!-- B3&#45;&gt;B4 -->
<!-- B4&#45;&gt;B5 -->
</g>
</svg>
