<?xml version="1.0" encoding="UTF-8" standalone="no"?>
<!DOCTYPE svg PUBLIC "-//W3C//DTD SVG 1.1//EN"
 "http://www.w3.org/Graphics/SVG/1.1/DTD/svg11.dtd">
<!-- Generated by graphviz version 14.0.5 (20251129.0259)
 -->
<!-- Title: EsquemaImplicacionesDocencia Pages: 1 -->
<svg width="647pt" height="134pt"
 viewBox="0.00 0.00 647.00 134.00" xmlns="http://www.w3.org/2000/svg" xmlns:xlink="http://www.w3.org/1999/xlink">
<g id="graph0" class="graph" transform="scale(1 1) rotate(0) translate(8.64 125.17)">
<title>EsquemaImplicacionesDocencia</title>
<polygon fill="white" stroke="none" points="-8.64,8.64 -8.64,-125.17 637.98,-125.17 637.98,8.64 -8.64,8.64"/>
<!-- A1 -->
<g id="node1" class="node">
<title>A1</title>
<path fill="white" stroke="black" d="M76.59,-116.53C76.59,-116.53 12,-116.53 12,-116.53 6,-116.53 0,-110.53 0,-104.53 0,-104.53 0,-90.64 0,-90.64 0,-84.64 6,-78.64 12,-78.64 12,-78.64 76.59,-78.64 76.59,-78.64 82.59,-78.64 88.59,-84.64 88.59,-90.64 88.59,-90.64 88.59,-104.53 88.59,-104.53 88.59,-110.53 82.59,-116.53 76.59,-116.53"/>
<text xml:space="preserve" text-anchor="middle" x="44.3" y="-103.66" font-family="Helvetica,sans-Serif" font-size="9.00">Estudiantes como</text>
<text xml:space="preserve" text-anchor="middle" x="44.3" y="-93.91" font-family="Helvetica,sans-Serif" font-size="9.00">sujetos Y agentes</text>
<text xml:space="preserve" text-anchor="middle" x="44.3" y="-84.16" font-family="Helvetica,sans-Serif" font-size="9.00">del dispositivo</text>
</g>
<!-- A2 -->
<g id="node2" class="node">
<title>A2</title>
<path fill="white" stroke="black" d="M191.97,-116.53C191.97,-116.53 144.62,-116.53 144.62,-116.53 138.62,-116.53 132.62,-110.53 132.62,-104.53 132.62,-104.53 132.62,-90.64 132.62,-90.64 132.62,-84.64 138.62,-78.64 144.62,-78.64 144.62,-78.64 191.97,-78.64 191.97,-78.64 197.97,-78.64 203.97,-84.64 203.97,-90.64 203.97,-90.64 203.97,-104.53 203.97,-104.53 203.97,-110.53 197.97,-116.53 191.97,-116.53"/>
<text xml:space="preserve" text-anchor="middle" x="168.3" y="-103.66" font-family="Helvetica,sans-Serif" font-size="9.00">Formación:</text>
<text xml:space="preserve" text-anchor="middle" x="168.3" y="-93.91" font-family="Helvetica,sans-Serif" font-size="9.00">operación sin</text>
<text xml:space="preserve" text-anchor="middle" x="168.3" y="-84.16" font-family="Helvetica,sans-Serif" font-size="9.00">interrogación</text>
</g>
<!-- A1&#45;&gt;A2 -->
<g id="edge1" class="edge">
<title>A1&#45;&gt;A2</title>
<path fill="none" stroke="black" stroke-width="1.2" d="M89.06,-97.59C99.23,-97.59 110.08,-97.59 120.37,-97.59"/>
<polygon fill="black" stroke="black" stroke-width="1.2" points="120.32,-101.09 130.32,-97.59 120.32,-94.09 120.32,-101.09"/>
<text xml:space="preserve" text-anchor="middle" x="110.61" y="-101.99" font-family="Helvetica,sans-Serif" font-size="8.00">produce</text>
</g>
<!-- A1&#45;&gt;A2 -->
<!-- B1 -->
<g id="node6" class="node">
<title>B1</title>
<path fill="white" stroke="black" d="M73.59,-47.64C73.59,-47.64 15,-47.64 15,-47.64 9,-47.64 3,-41.64 3,-35.64 3,-35.64 3,-12 3,-12 3,-6 9,0 15,0 15,0 73.59,0 73.59,0 79.59,0 85.59,-6 85.59,-12 85.59,-12 85.59,-35.64 85.59,-35.64 85.59,-41.64 79.59,-47.64 73.59,-47.64"/>
<text xml:space="preserve" text-anchor="middle" x="44.3" y="-34.77" font-family="Helvetica,sans-Serif" font-size="9.00">Bourdieu:</text>
<text xml:space="preserve" text-anchor="middle" x="44.3" y="-25.02" font-family="Helvetica,sans-Serif" font-size="9.00">&quot;armas contra la</text>
<text xml:space="preserve" text-anchor="middle" x="44.3" y="-15.27" font-family="Helvetica,sans-Serif" font-size="9.00">violencia suave&quot;</text>
<text xml:space="preserve" text-anchor="middle" x="44.3" y="-5.52" font-family="Helvetica,sans-Serif" font-size="9.00">(p. 13)</text>
</g>
<!-- A1&#45;&gt;B1 -->
<g id="edge5" class="edge">
<title>A1&#45;&gt;B1</title>
<path fill="none" stroke="black" stroke-width="1.2" stroke-dasharray="5,2" d="M44.3,-78.48C44.3,-69.26 44.3,-57.95 44.3,-48.09"/>
</g>
<!-- A3 -->
<g id="node3" class="node">
<title>A3</title>
<path fill="white" stroke="black" d="M332.97,-116.53C332.97,-116.53 279.62,-116.53 279.62,-116.53 273.62,-116.53 267.62,-110.53 267.62,-104.53 267.62,-104.53 267.62,-90.64 267.62,-90.64 267.62,-84.64 273.62,-78.64 279.62,-78.64 279.62,-78.64 332.97,-78.64 332.97,-78.64 338.97,-78.64 344.97,-84.64 344.97,-90.64 344.97,-90.64 344.97,-104.53 344.97,-104.53 344.97,-110.53 338.97,-116.53 332.97,-116.53"/>
<text xml:space="preserve" text-anchor="middle" x="306.3" y="-103.66" font-family="Helvetica,sans-Serif" font-size="9.00">Profilicidad ya</text>
<text xml:space="preserve" text-anchor="middle" x="306.3" y="-93.91" font-family="Helvetica,sans-Serif" font-size="9.00">constituye a</text>
<text xml:space="preserve" text-anchor="middle" x="306.3" y="-84.16" font-family="Helvetica,sans-Serif" font-size="9.00">los estudiantes</text>
</g>
<!-- A2&#45;&gt;A3 -->
<g id="edge2" class="edge">
<title>A2&#45;&gt;A3</title>
<path fill="none" stroke="black" stroke-width="1.2" d="M204.19,-97.59C219.9,-97.59 238.6,-97.59 255.68,-97.59"/>
<polygon fill="black" stroke="black" stroke-width="1.2" points="255.37,-101.09 265.37,-97.59 255.37,-94.09 255.37,-101.09"/>
<text xml:space="preserve" text-anchor="middle" x="235.8" y="-101.99" font-family="Helvetica,sans-Serif" font-size="8.00">agravado por</text>
</g>
<!-- A2&#45;&gt;A3 -->
<!-- B2 -->
<g id="node7" class="node">
<title>B2</title>
<path fill="white" stroke="black" d="M195.34,-43.52C195.34,-43.52 141.25,-43.52 141.25,-43.52 135.25,-43.52 129.25,-37.52 129.25,-31.52 129.25,-31.52 129.25,-16.12 129.25,-16.12 129.25,-10.12 135.25,-4.12 141.25,-4.12 141.25,-4.12 195.34,-4.12 195.34,-4.12 201.34,-4.12 207.34,-10.12 207.34,-16.12 207.34,-16.12 207.34,-31.52 207.34,-31.52 207.34,-37.52 201.34,-43.52 195.34,-43.52"/>
<text xml:space="preserve" text-anchor="middle" x="168.3" y="-30.64" font-family="Helvetica,sans-Serif" font-size="9.00">CE→VE como</text>
<text xml:space="preserve" text-anchor="middle" x="168.3" y="-19.39" font-family="Helvetica,sans-Serif" font-size="9.00">marco analítico</text>
<text xml:space="preserve" text-anchor="middle" x="168.3" y="-9.64" font-family="Helvetica,sans-Serif" font-size="9.00">transversal</text>
</g>
<!-- A2&#45;&gt;B2 -->
<g id="edge6" class="edge">
<title>A2&#45;&gt;B2</title>
<path fill="none" stroke="black" stroke-width="1.2" stroke-dasharray="5,2" d="M168.3,-78.48C168.3,-67.93 168.3,-54.64 168.3,-43.93"/>
</g>
<!-- A4 -->
<g id="node4" class="node">
<title>A4</title>
<path fill="white" stroke="black" d="M491.72,-116.53C491.72,-116.53 430.88,-116.53 430.88,-116.53 424.88,-116.53 418.88,-110.53 418.88,-104.53 418.88,-104.53 418.88,-90.64 418.88,-90.64 418.88,-84.64 424.88,-78.64 430.88,-78.64 430.88,-78.64 491.72,-78.64 491.72,-78.64 497.72,-78.64 503.72,-84.64 503.72,-90.64 503.72,-90.64 503.72,-104.53 503.72,-104.53 503.72,-110.53 497.72,-116.53 491.72,-116.53"/>
<text xml:space="preserve" text-anchor="middle" x="461.3" y="-103.66" font-family="Helvetica,sans-Serif" font-size="9.00">IA generativa:</text>
<text xml:space="preserve" text-anchor="middle" x="461.3" y="-93.91" font-family="Helvetica,sans-Serif" font-size="9.00">disponibilización</text>
<text xml:space="preserve" text-anchor="middle" x="461.3" y="-84.16" font-family="Helvetica,sans-Serif" font-size="9.00">vs. asimilación</text>
</g>
<!-- A3&#45;&gt;A4 -->
<g id="edge3" class="edge">
<title>A3&#45;&gt;A4</title>
<path fill="none" stroke="black" stroke-width="1.2" d="M345.41,-97.59C364,-97.59 386.54,-97.59 406.77,-97.59"/>
<polygon fill="black" stroke="black" stroke-width="1.2" points="406.56,-101.09 416.56,-97.59 406.56,-94.09 406.56,-101.09"/>
<text xml:space="preserve" text-anchor="middle" x="381.92" y="-101.99" font-family="Helvetica,sans-Serif" font-size="8.00">intensificado por</text>
</g>
<!-- A3&#45;&gt;A4 -->
<!-- B3 -->
<g id="node8" class="node">
<title>B3</title>
<path fill="white" stroke="black" d="M334.47,-42.77C334.47,-42.77 278.12,-42.77 278.12,-42.77 272.12,-42.77 266.12,-36.77 266.12,-30.77 266.12,-30.77 266.12,-16.88 266.12,-16.88 266.12,-10.87 272.12,-4.88 278.12,-4.88 278.12,-4.88 334.47,-4.88 334.47,-4.88 340.47,-4.88 346.47,-10.88 346.47,-16.88 346.47,-16.88 346.47,-30.77 346.47,-30.77 346.47,-36.77 340.47,-42.77 334.47,-42.77"/>
<text xml:space="preserve" text-anchor="middle" x="306.3" y="-29.89" font-family="Helvetica,sans-Serif" font-size="9.00">Moeller:</text>
<text xml:space="preserve" text-anchor="middle" x="306.3" y="-20.14" font-family="Helvetica,sans-Serif" font-size="9.00">perfil ≠ elección</text>
<text xml:space="preserve" text-anchor="middle" x="306.3" y="-10.39" font-family="Helvetica,sans-Serif" font-size="9.00">sino régimen</text>
</g>
<!-- A3&#45;&gt;B3 -->
<g id="edge7" class="edge">
<title>A3&#45;&gt;B3</title>
<path fill="none" stroke="black" stroke-width="1.2" stroke-dasharray="5,2" d="M306.3,-78.48C306.3,-67.68 306.3,-54.01 306.3,-43.17"/>
</g>
<!-- A5 -->
<g id="node5" class="node">
<title>A5</title>
<path fill="white" stroke="black" d="M606.47,-116.53C606.47,-116.53 562.13,-116.53 562.13,-116.53 556.13,-116.53 550.13,-110.53 550.13,-104.53 550.13,-104.53 550.13,-90.64 550.13,-90.64 550.13,-84.64 556.13,-78.64 562.13,-78.64 562.13,-78.64 606.47,-78.64 606.47,-78.64 612.47,-78.64 618.47,-84.64 618.47,-90.64 618.47,-90.64 618.47,-104.53 618.47,-104.53 618.47,-110.53 612.47,-116.53 606.47,-116.53"/>
<text xml:space="preserve" text-anchor="middle" x="584.3" y="-103.66" font-family="Helvetica,sans-Serif" font-size="9.00">Distribuir</text>
<text xml:space="preserve" text-anchor="middle" x="584.3" y="-93.91" font-family="Helvetica,sans-Serif" font-size="9.00">instrumentos</text>
<text xml:space="preserve" text-anchor="middle" x="584.3" y="-84.16" font-family="Helvetica,sans-Serif" font-size="9.00">críticos</text>
</g>
<!-- A4&#45;&gt;A5 -->
<g id="edge4" class="edge">
<title>A4&#45;&gt;A5</title>
<path fill="none" stroke="black" stroke-width="1.2" d="M503.97,-97.59C514.98,-97.59 526.87,-97.59 538.05,-97.59"/>
<polygon fill="black" stroke="black" stroke-width="1.2" points="538.01,-101.09 548.01,-97.59 538.01,-94.09 538.01,-101.09"/>
<text xml:space="preserve" text-anchor="middle" x="526.92" y="-101.99" font-family="Helvetica,sans-Serif" font-size="8.00">exige</text>
</g>
<!-- A4&#45;&gt;A5 -->
<!-- B4 -->
<g id="node9" class="node">
<title>B4</title>
<path fill="white" stroke="black" d="M496.22,-47.64C496.22,-47.64 426.38,-47.64 426.38,-47.64 420.38,-47.64 414.38,-41.64 414.38,-35.64 414.38,-35.64 414.38,-12 414.38,-12 414.38,-6 420.38,0 426.38,0 426.38,0 496.22,0 496.22,0 502.22,0 508.22,-6 508.22,-12 508.22,-12 508.22,-35.64 508.22,-35.64 508.22,-41.64 502.22,-47.64 496.22,-47.64"/>
<text xml:space="preserve" text-anchor="middle" x="461.3" y="-34.77" font-family="Helvetica,sans-Serif" font-size="9.00">Rosa:</text>
<text xml:space="preserve" text-anchor="middle" x="461.3" y="-25.02" font-family="Helvetica,sans-Serif" font-size="9.00">Anverwandlung vs.</text>
<text xml:space="preserve" text-anchor="middle" x="461.3" y="-15.27" font-family="Helvetica,sans-Serif" font-size="9.00">apropiación</text>
<text xml:space="preserve" text-anchor="middle" x="461.3" y="-5.52" font-family="Helvetica,sans-Serif" font-size="9.00">(pp. 38, 59)</text>
</g>
<!-- A4&#45;&gt;B4 -->
<g id="edge8" class="edge">
<title>A4&#45;&gt;B4</title>
<path fill="none" stroke="black" stroke-width="1.2" stroke-dasharray="5,2" d="M461.3,-78.48C461.3,-69.26 461.3,-57.95 461.3,-48.09"/>
</g>
<!-- B5 -->
<g id="node10" class="node">
<title>B5</title>
<path fill="white" stroke="black" d="M617.34,-47.64C617.34,-47.64 551.25,-47.64 551.25,-47.64 545.25,-47.64 539.25,-41.64 539.25,-35.64 539.25,-35.64 539.25,-12 539.25,-12 539.25,-6 545.25,0 551.25,0 551.25,0 617.34,0 617.34,0 623.34,0 629.34,-6 629.34,-12 629.34,-12 629.34,-35.64 629.34,-35.64 629.34,-41.64 623.34,-47.64 617.34,-47.64"/>
<text xml:space="preserve" text-anchor="middle" x="584.3" y="-34.77" font-family="Helvetica,sans-Serif" font-size="9.00">Bourdieu:</text>
<text xml:space="preserve" text-anchor="middle" x="584.3" y="-25.02" font-family="Helvetica,sans-Serif" font-size="9.00">instrumentos no</text>
<text xml:space="preserve" text-anchor="middle" x="584.3" y="-15.27" font-family="Helvetica,sans-Serif" font-size="9.00">universalmente</text>
<text xml:space="preserve" text-anchor="middle" x="584.3" y="-5.52" font-family="Helvetica,sans-Serif" font-size="9.00">distribuidos (p. 11)</text>
</g>
<!-- A5&#45;&gt;B5 -->
<g id="edge9" class="edge">
<title>A5&#45;&gt;B5</title>
<path fill="none" stroke="black" stroke-width="1.2" stroke-dasharray="5,2" d="M584.3,-78.48C584.3,-69.26 584.3,-57.95 584.3,-48.09"/>
</g>
<!-- B1&#45;&gt;B2 -->
<!-- B2&#45;&gt;B3 -->
<!-- B3&#45;&gt;B4 -->
<!-- B4&#45;&gt;B5 -->
</g>
</svg>
