<?xml version="1.0" encoding="UTF-8" standalone="no"?>
<!DOCTYPE svg PUBLIC "-//W3C//DTD SVG 1.1//EN"
 "http://www.w3.org/Graphics/SVG/1.1/DTD/svg11.dtd">
<!-- Generated by graphviz version 14.0.5 (20251129.0259)
 -->
<!-- Title: EsquemaBrainrotReproductibilidad Pages: 1 -->
<svg width="871pt" height="124pt"
 viewBox="0.00 0.00 871.00 124.00" xmlns="http://www.w3.org/2000/svg" xmlns:xlink="http://www.w3.org/1999/xlink">
<g id="graph0" class="graph" transform="scale(1 1) rotate(0) translate(8.64 115.42)">
<title>EsquemaBrainrotReproductibilidad</title>
<polygon fill="white" stroke="none" points="-8.64,8.64 -8.64,-115.42 861.98,-115.42 861.98,8.64 -8.64,8.64"/>
<!-- A1 -->
<g id="node1" class="node">
<title>A1</title>
<path fill="white" stroke="black" d="M77.71,-106.78C77.71,-106.78 24.37,-106.78 24.37,-106.78 18.37,-106.78 12.37,-100.78 12.37,-94.78 12.37,-94.78 12.37,-80.89 12.37,-80.89 12.37,-74.89 18.37,-68.89 24.37,-68.89 24.37,-68.89 77.71,-68.89 77.71,-68.89 83.71,-68.89 89.71,-74.89 89.71,-80.89 89.71,-80.89 89.71,-94.78 89.71,-94.78 89.71,-100.78 83.71,-106.78 77.71,-106.78"/>
<text xml:space="preserve" text-anchor="middle" x="51.04" y="-93.91" font-family="Helvetica,sans-Serif" font-size="9.00">Dadá 1916</text>
<text xml:space="preserve" text-anchor="middle" x="51.04" y="-84.16" font-family="Helvetica,sans-Serif" font-size="9.00">(gesto precede</text>
<text xml:space="preserve" text-anchor="middle" x="51.04" y="-74.41" font-family="Helvetica,sans-Serif" font-size="9.00">al aparato)</text>
</g>
<!-- A2 -->
<g id="node2" class="node">
<title>A2</title>
<path fill="white" stroke="black" d="M236.21,-106.78C236.21,-106.78 167.87,-106.78 167.87,-106.78 161.87,-106.78 155.87,-100.78 155.87,-94.78 155.87,-94.78 155.87,-80.89 155.87,-80.89 155.87,-74.89 161.87,-68.89 167.87,-68.89 167.87,-68.89 236.21,-68.89 236.21,-68.89 242.21,-68.89 248.21,-74.89 248.21,-80.89 248.21,-80.89 248.21,-94.78 248.21,-94.78 248.21,-100.78 242.21,-106.78 236.21,-106.78"/>
<text xml:space="preserve" text-anchor="middle" x="202.04" y="-93.91" font-family="Helvetica,sans-Serif" font-size="9.00">Brainrot 2023&#45;</text>
<text xml:space="preserve" text-anchor="middle" x="202.04" y="-84.16" font-family="Helvetica,sans-Serif" font-size="9.00">(gesto nace dentro</text>
<text xml:space="preserve" text-anchor="middle" x="202.04" y="-74.41" font-family="Helvetica,sans-Serif" font-size="9.00">del aparato)</text>
</g>
<!-- A1&#45;&gt;A2 -->
<g id="edge1" class="edge">
<title>A1&#45;&gt;A2</title>
<path fill="none" stroke="black" stroke-width="1.2" d="M89.93,-87.84C106.35,-87.84 125.81,-87.84 143.87,-87.84"/>
<polygon fill="black" stroke="black" stroke-width="1.2" points="143.68,-91.34 153.68,-87.84 143.68,-84.34 143.68,-91.34"/>
<text xml:space="preserve" text-anchor="middle" x="122.79" y="-101.24" font-family="Helvetica,sans-Serif" font-size="8.00">inversión:</text>
<text xml:space="preserve" text-anchor="middle" x="122.79" y="-92.24" font-family="Helvetica,sans-Serif" font-size="8.00">ya no precede</text>
</g>
<!-- A1&#45;&gt;A2 -->
<!-- B1 -->
<g id="node7" class="node">
<title>B1</title>
<path fill="white" stroke="black" d="M90.09,-37.89C90.09,-37.89 12,-37.89 12,-37.89 6,-37.89 0,-31.89 0,-25.89 0,-25.89 0,-12 0,-12 0,-6 6,0 12,0 12,0 90.09,0 90.09,0 96.09,0 102.09,-6 102.09,-12 102.09,-12 102.09,-25.89 102.09,-25.89 102.09,-31.89 96.09,-37.89 90.09,-37.89"/>
<text xml:space="preserve" text-anchor="middle" x="51.04" y="-25.02" font-family="Helvetica,sans-Serif" font-size="9.00">Benjamin:</text>
<text xml:space="preserve" text-anchor="middle" x="51.04" y="-15.27" font-family="Helvetica,sans-Serif" font-size="9.00">Dadá anticipa el cine</text>
<text xml:space="preserve" text-anchor="middle" x="51.04" y="-5.52" font-family="Helvetica,sans-Serif" font-size="9.00">(p. 89)</text>
</g>
<!-- A1&#45;&gt;B1 -->
<g id="edge6" class="edge">
<title>A1&#45;&gt;B1</title>
<path fill="none" stroke="black" stroke-width="1.2" stroke-dasharray="5,2" d="M51.04,-68.56C51.04,-59.12 51.04,-47.64 51.04,-38.2"/>
</g>
<!-- A3 -->
<g id="node3" class="node">
<title>A3</title>
<path fill="white" stroke="black" d="M379.96,-106.78C379.96,-106.78 334.12,-106.78 334.12,-106.78 328.12,-106.78 322.12,-100.78 322.12,-94.78 322.12,-94.78 322.12,-80.89 322.12,-80.89 322.12,-74.89 328.12,-68.89 334.12,-68.89 334.12,-68.89 379.96,-68.89 379.96,-68.89 385.96,-68.89 391.96,-74.89 391.96,-80.89 391.96,-80.89 391.96,-94.78 391.96,-94.78 391.96,-100.78 385.96,-106.78 379.96,-106.78"/>
<text xml:space="preserve" text-anchor="middle" x="357.04" y="-93.91" font-family="Helvetica,sans-Serif" font-size="9.00">Producción</text>
<text xml:space="preserve" text-anchor="middle" x="357.04" y="-84.16" font-family="Helvetica,sans-Serif" font-size="9.00">AI generativa</text>
<text xml:space="preserve" text-anchor="middle" x="357.04" y="-74.41" font-family="Helvetica,sans-Serif" font-size="9.00">(sin original)</text>
</g>
<!-- A2&#45;&gt;A3 -->
<g id="edge2" class="edge">
<title>A2&#45;&gt;A3</title>
<path fill="none" stroke="black" stroke-width="1.2" d="M248.55,-87.84C268.05,-87.84 290.67,-87.84 310.2,-87.84"/>
<polygon fill="black" stroke="black" stroke-width="1.2" points="310.09,-91.34 320.09,-87.84 310.09,-84.34 310.09,-91.34"/>
<text xml:space="preserve" text-anchor="middle" x="285.17" y="-92.24" font-family="Helvetica,sans-Serif" font-size="8.00">intensificado por</text>
</g>
<!-- A2&#45;&gt;A3 -->
<!-- B2 -->
<g id="node8" class="node">
<title>B2</title>
<path fill="white" stroke="black" d="M235.46,-37.89C235.46,-37.89 168.62,-37.89 168.62,-37.89 162.62,-37.89 156.62,-31.89 156.62,-25.89 156.62,-25.89 156.62,-12 156.62,-12 156.62,-6 162.62,0 168.62,0 168.62,0 235.46,0 235.46,0 241.46,0 247.46,-6 247.46,-12 247.46,-12 247.46,-25.89 247.46,-25.89 247.46,-31.89 241.46,-37.89 235.46,-37.89"/>
<text xml:space="preserve" text-anchor="middle" x="202.04" y="-25.02" font-family="Helvetica,sans-Serif" font-size="9.00">Owens: género de</text>
<text xml:space="preserve" text-anchor="middle" x="202.04" y="-15.27" font-family="Helvetica,sans-Serif" font-size="9.00">participación;</text>
<text xml:space="preserve" text-anchor="middle" x="202.04" y="-5.52" font-family="Helvetica,sans-Serif" font-size="9.00">anti&#45;gratificación</text>
</g>
<!-- A2&#45;&gt;B2 -->
<g id="edge7" class="edge">
<title>A2&#45;&gt;B2</title>
<path fill="none" stroke="black" stroke-width="1.2" stroke-dasharray="5,2" d="M202.04,-68.56C202.04,-59.12 202.04,-47.64 202.04,-38.2"/>
</g>
<!-- A4 -->
<g id="node4" class="node">
<title>A4</title>
<path fill="white" stroke="black" d="M525.96,-106.78C525.96,-106.78 456.12,-106.78 456.12,-106.78 450.12,-106.78 444.12,-100.78 444.12,-94.78 444.12,-94.78 444.12,-80.89 444.12,-80.89 444.12,-74.89 450.12,-68.89 456.12,-68.89 456.12,-68.89 525.96,-68.89 525.96,-68.89 531.96,-68.89 537.96,-74.89 537.96,-80.89 537.96,-80.89 537.96,-94.78 537.96,-94.78 537.96,-100.78 531.96,-106.78 525.96,-106.78"/>
<text xml:space="preserve" text-anchor="middle" x="491.04" y="-93.91" font-family="Helvetica,sans-Serif" font-size="9.00">Circuito de</text>
<text xml:space="preserve" text-anchor="middle" x="491.04" y="-84.16" font-family="Helvetica,sans-Serif" font-size="9.00">captura algorítmica</text>
<text xml:space="preserve" text-anchor="middle" x="491.04" y="-74.41" font-family="Helvetica,sans-Serif" font-size="9.00">(plataforma)</text>
</g>
<!-- A3&#45;&gt;A4 -->
<g id="edge3" class="edge">
<title>A3&#45;&gt;A4</title>
<path fill="none" stroke="black" stroke-width="1.2" d="M392.25,-87.84C404.43,-87.84 418.42,-87.84 431.98,-87.84"/>
<polygon fill="black" stroke="black" stroke-width="1.2" points="431.91,-91.34 441.91,-87.84 431.91,-84.34 431.91,-91.34"/>
<text xml:space="preserve" text-anchor="middle" x="418.04" y="-92.24" font-family="Helvetica,sans-Serif" font-size="8.00">alojado en</text>
</g>
<!-- A3&#45;&gt;A4 -->
<!-- B3 -->
<g id="node9" class="node">
<title>B3</title>
<path fill="white" stroke="black" d="M388.59,-37.89C388.59,-37.89 325.5,-37.89 325.5,-37.89 319.5,-37.89 313.5,-31.89 313.5,-25.89 313.5,-25.89 313.5,-12 313.5,-12 313.5,-6 319.5,0 325.5,0 325.5,0 388.59,0 388.59,0 394.59,0 400.59,-6 400.59,-12 400.59,-12 400.59,-25.89 400.59,-25.89 400.59,-31.89 394.59,-37.89 388.59,-37.89"/>
<text xml:space="preserve" text-anchor="middle" x="357.04" y="-25.02" font-family="Helvetica,sans-Serif" font-size="9.00">Lovink et al.:</text>
<text xml:space="preserve" text-anchor="middle" x="357.04" y="-15.27" font-family="Helvetica,sans-Serif" font-size="9.00">IA como máquina</text>
<text xml:space="preserve" text-anchor="middle" x="357.04" y="-5.52" font-family="Helvetica,sans-Serif" font-size="9.00">de memes</text>
</g>
<!-- A3&#45;&gt;B3 -->
<g id="edge8" class="edge">
<title>A3&#45;&gt;B3</title>
<path fill="none" stroke="black" stroke-width="1.2" stroke-dasharray="5,2" d="M357.04,-68.56C357.04,-59.12 357.04,-47.64 357.04,-38.2"/>
</g>
<!-- A5 -->
<g id="node5" class="node">
<title>A5</title>
<path fill="white" stroke="black" d="M688.46,-106.78C688.46,-106.78 609.62,-106.78 609.62,-106.78 603.62,-106.78 597.62,-100.78 597.62,-94.78 597.62,-94.78 597.62,-80.89 597.62,-80.89 597.62,-74.89 603.62,-68.89 609.62,-68.89 609.62,-68.89 688.46,-68.89 688.46,-68.89 694.46,-68.89 700.46,-74.89 700.46,-80.89 700.46,-80.89 700.46,-94.78 700.46,-94.78 700.46,-100.78 694.46,-106.78 688.46,-106.78"/>
<text xml:space="preserve" text-anchor="middle" x="649.04" y="-93.91" font-family="Helvetica,sans-Serif" font-size="9.00">Régimen de VE</text>
<text xml:space="preserve" text-anchor="middle" x="649.04" y="-84.16" font-family="Helvetica,sans-Serif" font-size="9.00">(CE tiende a cero;</text>
<text xml:space="preserve" text-anchor="middle" x="649.04" y="-74.41" font-family="Helvetica,sans-Serif" font-size="9.00">lógica de exposición)</text>
</g>
<!-- A4&#45;&gt;A5 -->
<g id="edge4" class="edge">
<title>A4&#45;&gt;A5</title>
<path fill="none" stroke="black" stroke-width="1.2" d="M538.45,-87.84C553.23,-87.84 569.77,-87.84 585.47,-87.84"/>
<polygon fill="black" stroke="black" stroke-width="1.2" points="585.45,-91.34 595.45,-87.84 585.45,-84.34 585.45,-91.34"/>
<text xml:space="preserve" text-anchor="middle" x="567.79" y="-92.24" font-family="Helvetica,sans-Serif" font-size="8.00">convierte en</text>
</g>
<!-- A4&#45;&gt;A5 -->
<!-- B4 -->
<g id="node10" class="node">
<title>B4</title>
<path fill="white" stroke="black" d="M524.46,-37.89C524.46,-37.89 457.62,-37.89 457.62,-37.89 451.62,-37.89 445.62,-31.89 445.62,-25.89 445.62,-25.89 445.62,-12 445.62,-12 445.62,-6 451.62,0 457.62,0 457.62,0 524.46,0 524.46,0 530.46,0 536.46,-6 536.46,-12 536.46,-12 536.46,-25.89 536.46,-25.89 536.46,-31.89 530.46,-37.89 524.46,-37.89"/>
<text xml:space="preserve" text-anchor="middle" x="491.04" y="-25.02" font-family="Helvetica,sans-Serif" font-size="9.00">Giblin&#45;Doctorow:</text>
<text xml:space="preserve" text-anchor="middle" x="491.04" y="-15.27" font-family="Helvetica,sans-Serif" font-size="9.00">cultura capturada;</text>
<text xml:space="preserve" text-anchor="middle" x="491.04" y="-5.52" font-family="Helvetica,sans-Serif" font-size="9.00">Adorno: repetición</text>
</g>
<!-- A4&#45;&gt;B4 -->
<g id="edge9" class="edge">
<title>A4&#45;&gt;B4</title>
<path fill="none" stroke="black" stroke-width="1.2" stroke-dasharray="5,2" d="M491.04,-68.56C491.04,-59.12 491.04,-47.64 491.04,-38.2"/>
</g>
<!-- A6 -->
<g id="node6" class="node">
<title>A6</title>
<path fill="white" stroke="black" d="M841.34,-106.78C841.34,-106.78 770.75,-106.78 770.75,-106.78 764.75,-106.78 758.75,-100.78 758.75,-94.78 758.75,-94.78 758.75,-80.89 758.75,-80.89 758.75,-74.89 764.75,-68.89 770.75,-68.89 770.75,-68.89 841.34,-68.89 841.34,-68.89 847.34,-68.89 853.34,-74.89 853.34,-80.89 853.34,-80.89 853.34,-94.78 853.34,-94.78 853.34,-100.78 847.34,-106.78 841.34,-106.78"/>
<text xml:space="preserve" text-anchor="middle" x="806.04" y="-93.91" font-family="Helvetica,sans-Serif" font-size="9.00">Transición:</text>
<text xml:space="preserve" text-anchor="middle" x="806.04" y="-84.16" font-family="Helvetica,sans-Serif" font-size="9.00">de gestos a sujetos</text>
<text xml:space="preserve" text-anchor="middle" x="806.04" y="-74.41" font-family="Helvetica,sans-Serif" font-size="9.00">(profilicidad)</text>
</g>
<!-- A5&#45;&gt;A6 -->
<g id="edge5" class="edge">
<title>A5&#45;&gt;A6</title>
<path fill="none" stroke="black" stroke-width="1.2" d="M700.89,-87.84C715.69,-87.84 731.93,-87.84 747.13,-87.84"/>
<polygon fill="black" stroke="black" stroke-width="1.2" points="746.68,-91.34 756.68,-87.84 746.68,-84.34 746.68,-91.34"/>
<text xml:space="preserve" text-anchor="middle" x="729.61" y="-92.24" font-family="Helvetica,sans-Serif" font-size="8.00">abre paso a</text>
</g>
<!-- A5&#45;&gt;A6 -->
<!-- B5 -->
<g id="node11" class="node">
<title>B5</title>
<path fill="white" stroke="black" d="M670.09,-37.89C670.09,-37.89 628,-37.89 628,-37.89 622,-37.89 616,-31.89 616,-25.89 616,-25.89 616,-12 616,-12 616,-6 622,0 628,0 628,0 670.09,0 670.09,0 676.09,0 682.09,-6 682.09,-12 682.09,-12 682.09,-25.89 682.09,-25.89 682.09,-31.89 676.09,-37.89 670.09,-37.89"/>
<text xml:space="preserve" text-anchor="middle" x="649.04" y="-25.02" font-family="Helvetica,sans-Serif" font-size="9.00">Rosa:</text>
<text xml:space="preserve" text-anchor="middle" x="649.04" y="-15.27" font-family="Helvetica,sans-Serif" font-size="9.00">resonancia</text>
<text xml:space="preserve" text-anchor="middle" x="649.04" y="-5.52" font-family="Helvetica,sans-Serif" font-size="9.00">indisponible</text>
</g>
<!-- A5&#45;&gt;B5 -->
<g id="edge10" class="edge">
<title>A5&#45;&gt;B5</title>
<path fill="none" stroke="black" stroke-width="1.2" stroke-dasharray="5,2" d="M649.04,-68.56C649.04,-59.12 649.04,-47.64 649.04,-38.2"/>
</g>
<!-- B1&#45;&gt;B2 -->
<!-- B2&#45;&gt;B3 -->
<!-- B3&#45;&gt;B4 -->
<!-- B4&#45;&gt;B5 -->
</g>
</svg>
